<?xml version="1.0" encoding="utf-8" standalone="no"?>
<!DOCTYPE svg PUBLIC "-//W3C//DTD SVG 1.1//EN"
  "http://www.w3.org/Graphics/SVG/1.1/DTD/svg11.dtd">
<!-- Created with matplotlib (http://matplotlib.org/) -->
<svg height="180pt" version="1.1" viewBox="0 0 540 180" width="540pt" xmlns="http://www.w3.org/2000/svg" xmlns:xlink="http://www.w3.org/1999/xlink">
 <defs>
  <style type="text/css">
*{stroke-linecap:butt;stroke-linejoin:round;}
  </style>
 </defs>
 <g id="figure_1">
  <g id="patch_1">
   <path d="M 0 180 
L 540 180 
L 540 0 
L 0 0 
z
" style="fill:#ffffff;"/>
  </g>
  <g id="axes_1">
   <g id="patch_2">
    <path d="M 53.486793 136.91203 
L 520.344293 136.91203 
L 520.344293 28.32 
L 53.486793 28.32 
z
" style="fill:#ffffff;"/>
   </g>
   <g id="matplotlib.axis_1">
    <g id="xtick_1">
     <g id="line2d_1">
      <defs>
       <path d="M 0 0 
L 0 3.5 
" id="m00eeffbb12" style="stroke:#000000;stroke-width:0.8;"/>
      </defs>
      <g>
       <use style="stroke:#000000;stroke-width:0.8;" x="53.486793" xlink:href="#m00eeffbb12" y="136.91203"/>
      </g>
     </g>
     <g id="text_1">
      <!-- $0.45$ -->
      <defs>
       <path d="M 42 31.640625 
C 42 37.75 41.90625 48.125 37.703125 56.109375 
C 34 63.109375 28.09375 65.59375 22.90625 65.59375 
C 18.09375 65.59375 12 63.40625 8.203125 56.203125 
C 4.203125 48.71875 3.796875 39.4375 3.796875 31.640625 
C 3.796875 25.953125 3.90625 17.28125 7 9.671875 
C 11.296875 -0.609375 19 -2 22.90625 -2 
C 27.5 -2 34.5 -0.109375 38.59375 9.375 
C 41.59375 16.28125 42 24.359375 42 31.640625 
z
M 22.90625 -0.40625 
C 16.5 -0.40625 12.703125 5.078125 11.296875 12.6875 
C 10.203125 18.5625 10.203125 27.15625 10.203125 32.75 
C 10.203125 40.4375 10.203125 46.828125 11.5 52.921875 
C 13.40625 61.390625 19 64 22.90625 64 
C 27 64 32.296875 61.296875 34.203125 53.125 
C 35.5 47.4375 35.59375 40.734375 35.59375 32.75 
C 35.59375 26.25 35.59375 18.265625 34.40625 12.375 
C 32.296875 1.484375 26.40625 -0.40625 22.90625 -0.40625 
z
" id="CMR17-48"/>
       <path d="M 18.40625 4.796875 
C 18.40625 7.6875 16 9.671875 13.59375 9.671875 
C 10.703125 9.671875 8.703125 7.28125 8.703125 4.890625 
C 8.703125 2 11.09375 0 13.5 0 
C 16.40625 0 18.40625 2.390625 18.40625 4.796875 
z
" id="CMMI12-58"/>
       <path d="M 33.59375 64.40625 
C 33.59375 66.5 33.5 66.5 31.703125 66.5 
L 2 19.59375 
L 2 17 
L 27.796875 17 
L 27.796875 7.140625 
C 27.796875 3.5 27.59375 2.5 20.59375 2.5 
L 18.703125 2.5 
L 18.703125 0 
C 21.90625 0 27.296875 0 30.703125 0 
C 34.09375 0 39.5 0 42.703125 0 
L 42.703125 2.5 
L 40.796875 2.5 
C 33.796875 2.5 33.59375 3.5 33.59375 7.140625 
L 33.59375 17 
L 43.796875 17 
L 43.796875 19.59375 
L 33.59375 19.59375 
z
M 28.09375 57.859375 
L 28.09375 19.59375 
L 4 19.59375 
z
" id="CMR17-52"/>
       <path d="M 11.40625 57.6875 
C 12.40625 57.28125 16.5 56 20.703125 56 
C 30 56 35.09375 61.109375 38 64.0625 
C 38 64.953125 38 65.5 37.40625 65.5 
C 37.296875 65.5 37.09375 65.5 36.296875 65.046875 
C 32.796875 63.40625 28.703125 62.078125 23.703125 62.078125 
C 20.703125 62.078125 16.203125 62.484375 11.296875 64.671875 
C 10.203125 65.171875 10 65.171875 9.90625 65.171875 
C 9.40625 65.171875 9.296875 65.0625 9.296875 63.078125 
L 9.296875 34.421875 
C 9.296875 32.640625 9.296875 32.140625 10.296875 32.140625 
C 10.796875 32.140625 11 32.34375 11.5 33.03125 
C 14.703125 37.515625 19.09375 39.40625 24.09375 39.40625 
C 27.59375 39.40625 35.09375 37.21875 35.09375 20.140625 
C 35.09375 16.953125 35.09375 11.171875 32.09375 6.578125 
C 29.59375 2.484375 25.703125 0.390625 21.40625 0.390625 
C 14.796875 0.390625 8.09375 5 6.296875 12.71875 
C 6.703125 12.609375 7.5 12.421875 7.90625 12.421875 
C 9.203125 12.421875 11.703125 13.125 11.703125 16.21875 
C 11.703125 18.90625 9.796875 20 7.90625 20 
C 5.59375 20 4.09375 18.59375 4.09375 15.796875 
C 4.09375 7.09375 11 -2 21.59375 -2 
C 31.90625 -2 41.703125 6.875 41.703125 19.75 
C 41.703125 31.71875 33.90625 41 24.203125 41 
C 19.09375 41 14.796875 39.109375 11.40625 35.53125 
z
" id="CMR17-53"/>
      </defs>
      <g transform="translate(44.631086 150.830528)scale(0.1 -0.1)">
       <use transform="scale(0.996264)" xlink:href="#CMR17-48"/>
       <use transform="translate(45.690477 0)scale(0.996264)" xlink:href="#CMMI12-58"/>
       <use transform="translate(72.787654 0)scale(0.996264)" xlink:href="#CMR17-52"/>
       <use transform="translate(118.478131 0)scale(0.996264)" xlink:href="#CMR17-53"/>
      </g>
     </g>
    </g>
    <g id="xtick_2">
     <g id="line2d_2">
      <g>
       <use style="stroke:#000000;stroke-width:0.8;" x="131.296376" xlink:href="#m00eeffbb12" y="136.91203"/>
      </g>
     </g>
     <g id="text_2">
      <!-- $0.50$ -->
      <g transform="translate(122.440669 150.830528)scale(0.1 -0.1)">
       <use transform="scale(0.996264)" xlink:href="#CMR17-48"/>
       <use transform="translate(45.690477 0)scale(0.996264)" xlink:href="#CMMI12-58"/>
       <use transform="translate(72.787654 0)scale(0.996264)" xlink:href="#CMR17-53"/>
       <use transform="translate(118.478131 0)scale(0.996264)" xlink:href="#CMR17-48"/>
      </g>
     </g>
    </g>
    <g id="xtick_3">
     <g id="line2d_3">
      <g>
       <use style="stroke:#000000;stroke-width:0.8;" x="209.10596" xlink:href="#m00eeffbb12" y="136.91203"/>
      </g>
     </g>
     <g id="text_3">
      <!-- $0.55$ -->
      <g transform="translate(200.250252 150.830528)scale(0.1 -0.1)">
       <use transform="scale(0.996264)" xlink:href="#CMR17-48"/>
       <use transform="translate(45.690477 0)scale(0.996264)" xlink:href="#CMMI12-58"/>
       <use transform="translate(72.787654 0)scale(0.996264)" xlink:href="#CMR17-53"/>
       <use transform="translate(118.478131 0)scale(0.996264)" xlink:href="#CMR17-53"/>
      </g>
     </g>
    </g>
    <g id="xtick_4">
     <g id="line2d_4">
      <g>
       <use style="stroke:#000000;stroke-width:0.8;" x="286.915543" xlink:href="#m00eeffbb12" y="136.91203"/>
      </g>
     </g>
     <g id="text_4">
      <!-- $0.60$ -->
      <defs>
       <path d="M 10.59375 34 
C 10.59375 57.65625 21.796875 63 28.296875 63 
C 30.40625 63 35.5 62.640625 37.5 59 
C 35.90625 59 32.90625 59 32.90625 55.515625 
C 32.90625 52.828125 35.09375 51.921875 36.5 51.921875 
C 37.40625 51.921875 40.09375 52.3125 40.09375 55.625 
C 40.09375 61.78125 35.09375 65.296875 28.203125 65.296875 
C 16.296875 65.296875 3.796875 52.96875 3.796875 31 
C 3.796875 3.953125 15.09375 -2 23.09375 -2 
C 32.796875 -2 42 6.671875 42 20.046875 
C 42 32.515625 33.90625 41.59375 23.703125 41.59375 
C 17.59375 41.59375 13.09375 37.609375 10.59375 30.625 
z
M 23.09375 0.390625 
C 10.796875 0.390625 10.796875 18.75 10.796875 22.4375 
C 10.796875 29.625 14.203125 40 23.5 40 
C 25.203125 40 30.09375 40 33.40625 33.125 
C 35.203125 29.21875 35.203125 25.140625 35.203125 20.140625 
C 35.203125 14.75 35.203125 10.78125 33.09375 6.78125 
C 30.90625 2.671875 27.703125 0.390625 23.09375 0.390625 
z
" id="CMR17-54"/>
      </defs>
      <g transform="translate(278.059836 150.830528)scale(0.1 -0.1)">
       <use transform="scale(0.996264)" xlink:href="#CMR17-48"/>
       <use transform="translate(45.690477 0)scale(0.996264)" xlink:href="#CMMI12-58"/>
       <use transform="translate(72.787654 0)scale(0.996264)" xlink:href="#CMR17-54"/>
       <use transform="translate(118.478131 0)scale(0.996264)" xlink:href="#CMR17-48"/>
      </g>
     </g>
    </g>
    <g id="xtick_5">
     <g id="line2d_5">
      <g>
       <use style="stroke:#000000;stroke-width:0.8;" x="364.725126" xlink:href="#m00eeffbb12" y="136.91203"/>
      </g>
     </g>
     <g id="text_5">
      <!-- $0.65$ -->
      <g transform="translate(355.869419 150.830528)scale(0.1 -0.1)">
       <use transform="scale(0.996264)" xlink:href="#CMR17-48"/>
       <use transform="translate(45.690477 0)scale(0.996264)" xlink:href="#CMMI12-58"/>
       <use transform="translate(72.787654 0)scale(0.996264)" xlink:href="#CMR17-54"/>
       <use transform="translate(118.478131 0)scale(0.996264)" xlink:href="#CMR17-53"/>
      </g>
     </g>
    </g>
    <g id="xtick_6">
     <g id="line2d_6">
      <g>
       <use style="stroke:#000000;stroke-width:0.8;" x="442.53471" xlink:href="#m00eeffbb12" y="136.91203"/>
      </g>
     </g>
     <g id="text_6">
      <!-- $0.70$ -->
      <defs>
       <path d="M 45.09375 61.578125 
L 45.09375 63.765625 
L 21.59375 63.765625 
C 9.90625 63.765625 9.703125 65.078125 9.296875 67 
L 7.5 67 
L 4.59375 48.34375 
L 6.40625 48.34375 
C 6.703125 50.234375 7.40625 55.3125 8.59375 57.203125 
C 9.203125 58 16.59375 58 18.296875 58 
L 40.296875 58 
L 29.203125 41.578125 
C 21.796875 30.53125 16.703125 15.609375 16.703125 2.578125 
C 16.703125 1.390625 16.703125 -2 20.296875 -2 
C 23.90625 -2 23.90625 1.390625 23.90625 2.671875 
L 23.90625 7.265625 
C 23.90625 23.5625 26.703125 34.3125 31.296875 41.1875 
z
" id="CMR17-55"/>
      </defs>
      <g transform="translate(433.679002 150.830528)scale(0.1 -0.1)">
       <use transform="scale(0.996264)" xlink:href="#CMR17-48"/>
       <use transform="translate(45.690477 0)scale(0.996264)" xlink:href="#CMMI12-58"/>
       <use transform="translate(72.787654 0)scale(0.996264)" xlink:href="#CMR17-55"/>
       <use transform="translate(118.478131 0)scale(0.996264)" xlink:href="#CMR17-48"/>
      </g>
     </g>
    </g>
    <g id="xtick_7">
     <g id="line2d_7">
      <g>
       <use style="stroke:#000000;stroke-width:0.8;" x="520.344293" xlink:href="#m00eeffbb12" y="136.91203"/>
      </g>
     </g>
     <g id="text_7">
      <!-- $0.75$ -->
      <g transform="translate(511.488586 150.830528)scale(0.1 -0.1)">
       <use transform="scale(0.996264)" xlink:href="#CMR17-48"/>
       <use transform="translate(45.690477 0)scale(0.996264)" xlink:href="#CMMI12-58"/>
       <use transform="translate(72.787654 0)scale(0.996264)" xlink:href="#CMR17-55"/>
       <use transform="translate(118.478131 0)scale(0.996264)" xlink:href="#CMR17-53"/>
      </g>
     </g>
    </g>
    <g id="text_8">
     <!-- \textbf{Time (s)} -->
     <defs>
      <path d="M 72 67.265625 
L 6.09375 67.265625 
L 4.09375 43.703125 
L 8.296875 43.703125 
C 9.203125 54.546875 10 63 24.40625 63 
L 32.5 63 
L 32.5 4.171875 
L 17.40625 4.171875 
L 17.40625 0 
C 25.40625 0 35.703125 0 39.09375 0 
C 45.203125 0 52.796875 0 60.796875 0 
L 60.796875 4.171875 
L 45.703125 4.171875 
L 45.703125 63 
L 53.703125 63 
C 68.09375 63 68.90625 54.640625 69.796875 43.703125 
L 74 43.703125 
z
" id="CMBX12-84"/>
      <path d="M 22.296875 61.84375 
C 22.296875 65.921875 19 69 15.09375 69 
C 11 69 7.90625 65.625 7.90625 61.84375 
C 7.90625 58.0625 11 54.6875 15.09375 54.6875 
C 19 54.6875 22.296875 57.765625 22.296875 61.84375 
z
M 4.703125 44 
L 4.703125 39.328125 
C 10.59375 39.328125 11.296875 39.328125 11.296875 35.46875 
L 11.296875 4.0625 
L 4.40625 4.0625 
L 4.40625 -0.203125 
C 6.703125 0 13.59375 0 16.296875 0 
C 19.09375 0 25.5 0 27.90625 -0.203125 
L 27.90625 4.0625 
L 21.703125 4.0625 
L 21.703125 44 
z
" id="CMBX12-105"/>
      <path d="M 84.40625 30.0625 
C 84.40625 39.15625 80.5 44.28125 69.296875 44.28125 
C 59.203125 44.28125 54.5 37.609375 52.90625 34.46875 
C 51.296875 42.8125 44.5 44.28125 38.09375 44.28125 
C 28.5 44.28125 23.296875 38.203125 21.203125 33.484375 
L 21.09375 33.484375 
L 21.09375 44 
L 4.203125 44 
L 4.203125 39.328125 
C 10.40625 39.328125 11.09375 39.328125 11.09375 35.46875 
L 11.09375 4.0625 
L 4.203125 4.0625 
L 4.203125 -0.203125 
C 6.5 0 13.703125 0 16.5 0 
C 19.296875 0 26.59375 0 28.90625 -0.203125 
L 28.90625 4.0625 
L 22 4.0625 
L 22 25.109375 
C 22 35.875 30.09375 41 36.40625 41 
C 40.09375 41 42.296875 38.828125 42.296875 31.140625 
L 42.296875 4.0625 
L 35.40625 4.0625 
L 35.40625 -0.203125 
C 37.703125 0 44.90625 0 47.703125 0 
C 50.5 0 57.796875 0 60.09375 -0.203125 
L 60.09375 4.0625 
L 53.203125 4.0625 
L 53.203125 25.109375 
C 53.203125 35.875 61.296875 41 67.59375 41 
C 71.296875 41 73.5 38.828125 73.5 31.140625 
L 73.5 4.0625 
L 66.59375 4.0625 
L 66.59375 -0.203125 
C 68.90625 0 76.09375 0 78.90625 0 
C 81.703125 0 89 0 91.296875 -0.203125 
L 91.296875 4.0625 
L 84.40625 4.0625 
z
" id="CMBX12-109"/>
      <path d="M 45.203125 22 
C 47.5 22 48.09375 22 48.09375 24.484375 
C 48.09375 27.46875 47.40625 34.890625 42.796875 39.5625 
C 38.59375 43.71875 33 45 27.203125 45 
C 11.59375 45 3.09375 34.890625 3.09375 22.40625 
C 3.09375 8.515625 13.40625 -0.5 28.5 -0.5 
C 43.59375 -0.5 48.09375 10 48.09375 11.6875 
C 48.09375 13.171875 46.59375 13.171875 46 13.171875 
C 44.40625 13.171875 44.296875 12.875 43.703125 11.59375 
C 41.09375 5.15625 34.5 3.078125 29.703125 3.078125 
C 15.203125 3.078125 15.09375 16.453125 15.09375 22 
z
M 15.09375 24.890625 
C 15.296875 28.9375 15.40625 32.8125 17.5 36.375 
C 19.40625 39.546875 22.90625 41.71875 27.203125 41.71875 
C 37.90625 41.71875 38.796875 29.828125 38.90625 24.890625 
z
" id="CMBX12-101"/>
      <path d="M 37.40625 -23.8125 
C 37.40625 -23.40625 37.40625 -23.203125 35.5 -21.421875 
C 24.296875 -10.296875 20 7.203125 20 24.6875 
C 20 44.28125 24.90625 60.390625 36.09375 71.609375 
C 37.296875 72.796875 37.40625 72.90625 37.40625 73.296875 
C 37.40625 74.5 36.203125 74.5 35.703125 74.5 
C 34.796875 74.5 34.59375 74.5 32 72.40625 
C 17.59375 60.984375 10.796875 42.6875 10.796875 24.8125 
C 10.796875 6.515625 17.703125 -11.28125 31.90625 -22.8125 
C 34.5 -25 34.703125 -25 35.703125 -25 
C 36.203125 -25 37.40625 -25 37.40625 -23.8125 
z
" id="CMBX12-40"/>
      <path d="M 37.703125 42.421875 
C 37.703125 44.3125 37.703125 45 36.203125 45 
C 35.59375 45 35.40625 45 33.90625 44.109375 
C 33.5 43.8125 32.40625 43.109375 31.90625 42.8125 
C 29.09375 44.40625 25.40625 45 21.796875 45 
C 18.796875 45 3.796875 45 3.796875 32.125 
C 3.796875 21.703125 16.203125 19.53125 19.296875 19.03125 
C 22 18.546875 25.296875 17.9375 25.703125 17.9375 
C 29.703125 17.046875 33.703125 14.5625 33.703125 10.40625 
C 33.703125 2.78125 24.59375 2.78125 22.5 2.78125 
C 17.40625 2.78125 11.09375 4.359375 8.296875 14 
C 7.703125 15.984375 7.59375 15.984375 5.90625 15.984375 
C 3.796875 15.984375 3.796875 15.6875 3.796875 13.40625 
L 3.796875 2.0625 
C 3.796875 0.1875 3.796875 -0.5 5.296875 -0.5 
C 6 -0.5 6.203125 -0.5 8.203125 1.09375 
L 10.796875 2.984375 
C 15.296875 -0.5 20.703125 -0.5 22.5 -0.5 
C 28 -0.5 40.5 0.6875 40.5 13.875 
C 40.5 18.625 37.90625 21.90625 35.90625 23.6875 
C 31.796875 27.046875 28.40625 27.65625 23 28.640625 
C 16.59375 29.734375 10.59375 30.828125 10.59375 35.578125 
C 10.59375 42.015625 19.5 42.015625 21.59375 42.015625 
C 32.703125 42.015625 33.296875 35.078125 33.5 32.609375 
C 33.59375 31.328125 34.40625 31.328125 35.59375 31.328125 
C 37.703125 31.328125 37.703125 31.625 37.703125 33.90625 
z
" id="CMBX12-115"/>
      <path d="M 32.796875 24.703125 
C 32.796875 42.984375 25.90625 60.78125 11.703125 72.3125 
C 9.09375 74.5 8.90625 74.5 7.90625 74.5 
C 7.40625 74.5 6.203125 74.5 6.203125 73.3125 
C 6.203125 72.921875 6.203125 72.71875 8.09375 70.9375 
C 19.296875 59.796875 23.59375 42.3125 23.59375 24.8125 
C 23.59375 5.21875 18.703125 -10.875 7.5 -22.109375 
C 6.296875 -23.3125 6.203125 -23.40625 6.203125 -23.8125 
C 6.203125 -25 7.40625 -25 7.90625 -25 
C 8.796875 -25 9 -25 11.59375 -22.90625 
C 26 -11.484375 32.796875 6.8125 32.796875 24.703125 
z
" id="CMBX12-41"/>
     </defs>
     <g style="fill:#333333;" transform="translate(262.615418 165.173684)scale(0.1125 -0.1125)">
      <use transform="scale(0.996264)" xlink:href="#CMBX12-84"/>
      <use transform="translate(77.94837 0)scale(0.996264)" xlink:href="#CMBX12-105"/>
      <use transform="translate(109.081621 0)scale(0.996264)" xlink:href="#CMBX12-109"/>
      <use transform="translate(202.481372 0)scale(0.996264)" xlink:href="#CMBX12-101"/>
      <use transform="translate(290.980539 0)scale(0.996264)" xlink:href="#CMBX12-40"/>
      <use transform="translate(334.56709 0)scale(0.996264)" xlink:href="#CMBX12-115"/>
      <use transform="translate(378.776427 0)scale(0.996264)" xlink:href="#CMBX12-41"/>
     </g>
    </g>
   </g>
   <g id="matplotlib.axis_2">
    <g id="ytick_1">
     <g id="line2d_8">
      <defs>
       <path d="M 0 0 
L -3.5 0 
" id="m1a34d574f0" style="stroke:#000000;stroke-width:0.8;"/>
      </defs>
      <g>
       <use style="stroke:#000000;stroke-width:0.8;" x="53.486793" xlink:href="#m1a34d574f0" y="136.91203"/>
      </g>
     </g>
     <g id="text_9">
      <!-- $-1.0$ -->
      <defs>
       <path d="M 65.90625 23 
C 67.59375 23 69.40625 23 69.40625 25 
C 69.40625 27 67.59375 27 65.90625 27 
L 11.796875 27 
C 10.09375 27 8.296875 27 8.296875 25 
C 8.296875 23 10.09375 23 11.796875 23 
z
" id="CMSY10-0"/>
       <path d="M 26.59375 63.40625 
C 26.59375 65.5 26.5 65.5 25.09375 65.5 
C 21.203125 61.1875 15.296875 59.796875 9.703125 59.796875 
C 9.40625 59.796875 8.90625 59.796875 8.796875 59.5 
C 8.703125 59.296875 8.703125 59.09375 8.703125 57 
C 11.796875 57 17 57.59375 21 59.984375 
L 21 7.203125 
C 21 3.6875 20.796875 2.5 12.203125 2.5 
L 9.203125 2.5 
L 9.203125 0 
C 14 0 19 0 23.796875 0 
C 28.59375 0 33.59375 0 38.40625 0 
L 38.40625 2.5 
L 35.40625 2.5 
C 26.796875 2.5 26.59375 3.59375 26.59375 7.15625 
z
" id="CMR17-49"/>
      </defs>
      <g transform="translate(26.00797 140.371279)scale(0.1 -0.1)">
       <use transform="scale(0.996264)" xlink:href="#CMSY10-0"/>
       <use transform="translate(77.487468 0)scale(0.996264)" xlink:href="#CMR17-49"/>
       <use transform="translate(123.177945 0)scale(0.996264)" xlink:href="#CMMI12-58"/>
       <use transform="translate(150.275122 0)scale(0.996264)" xlink:href="#CMR17-48"/>
      </g>
     </g>
    </g>
    <g id="ytick_2">
     <g id="line2d_9">
      <g>
       <use style="stroke:#000000;stroke-width:0.8;" x="53.486793" xlink:href="#m1a34d574f0" y="102.977021"/>
      </g>
     </g>
     <g id="text_10">
      <!-- $-0.5$ -->
      <g transform="translate(26.00797 106.43627)scale(0.1 -0.1)">
       <use transform="scale(0.996264)" xlink:href="#CMSY10-0"/>
       <use transform="translate(77.487468 0)scale(0.996264)" xlink:href="#CMR17-48"/>
       <use transform="translate(123.177945 0)scale(0.996264)" xlink:href="#CMMI12-58"/>
       <use transform="translate(150.275122 0)scale(0.996264)" xlink:href="#CMR17-53"/>
      </g>
     </g>
    </g>
    <g id="ytick_3">
     <g id="line2d_10">
      <g>
       <use style="stroke:#000000;stroke-width:0.8;" x="53.486793" xlink:href="#m1a34d574f0" y="69.042011"/>
      </g>
     </g>
     <g id="text_11">
      <!-- $0.0$ -->
      <g transform="translate(33.756714 72.50126)scale(0.1 -0.1)">
       <use transform="scale(0.996264)" xlink:href="#CMR17-48"/>
       <use transform="translate(45.690477 0)scale(0.996264)" xlink:href="#CMMI12-58"/>
       <use transform="translate(72.787654 0)scale(0.996264)" xlink:href="#CMR17-48"/>
      </g>
     </g>
    </g>
    <g id="ytick_4">
     <g id="line2d_11">
      <g>
       <use style="stroke:#000000;stroke-width:0.8;" x="53.486793" xlink:href="#m1a34d574f0" y="35.107002"/>
      </g>
     </g>
     <g id="text_12">
      <!-- $0.5$ -->
      <g transform="translate(33.756714 38.566251)scale(0.1 -0.1)">
       <use transform="scale(0.996264)" xlink:href="#CMR17-48"/>
       <use transform="translate(45.690477 0)scale(0.996264)" xlink:href="#CMMI12-58"/>
       <use transform="translate(72.787654 0)scale(0.996264)" xlink:href="#CMR17-53"/>
      </g>
     </g>
    </g>
    <g id="text_13">
     <!-- \textbf{Diode Signals (V)} -->
     <defs>
      <path d="M 3.796875 68.28125 
L 3.796875 64 
L 14.40625 64 
L 14.40625 4.265625 
L 3.796875 4.265625 
L 3.796875 0 
L 45.90625 0 
C 65.09375 0 79.90625 12.234375 79.90625 33.546875 
C 79.90625 56.046875 64.703125 68.28125 45.90625 68.28125 
z
M 27.09375 4.265625 
L 27.09375 64 
L 42.09375 64 
C 50.796875 64 57.796875 60.625 61.5 55.4375 
C 64.40625 51.359375 66.296875 46.484375 66.296875 33.640625 
C 66.296875 21.984375 64.796875 16.828125 61.296875 12.140625 
C 57.796875 7.546875 51.09375 4.265625 42.09375 4.265625 
z
" id="CMBX12-68"/>
      <path d="M 53 21.796875 
C 53 35.1875 43.796875 45 28.09375 45 
C 11.796875 45 3.09375 34.6875 3.09375 21.796875 
C 3.09375 8.828125 12.296875 -0.5 28 -0.5 
C 44.296875 -0.5 53 9.3125 53 21.796875 
z
M 28.09375 3.078125 
C 15.09375 3.078125 15.09375 14.671875 15.09375 22.796875 
C 15.09375 27.453125 15.09375 32.40625 17 35.984375 
C 19.203125 39.9375 23.703125 41.71875 28 41.71875 
C 33.703125 41.71875 37.296875 39.046875 39 36.28125 
C 41 32.703125 41 27.546875 41 22.796875 
C 41 14.5625 41 3.078125 28.09375 3.078125 
z
" id="CMBX12-111"/>
      <path d="M 34.703125 69 
L 34.703125 64.328125 
C 40.90625 64.328125 41.59375 64.328125 41.59375 60.421875 
L 41.59375 40.234375 
C 39.40625 42.125 35 45 28.09375 45 
C 13.90625 45 3.796875 36.21875 3.796875 22.25 
C 3.796875 7.96875 13.703125 -0.5 27 -0.5 
C 32.5 -0.5 37.203125 1.46875 41.09375 4.859375 
L 41.09375 0 
L 58.90625 0 
L 58.90625 4.5625 
C 52.703125 4.5625 52 4.5625 52 8.4375 
L 52 69 
z
M 41.09375 10.328125 
C 36.90625 4.09375 31.796875 2.78125 28.203125 2.78125 
C 15.796875 2.78125 15.796875 15.453125 15.796875 22.046875 
C 15.796875 26.75 15.796875 31.75 18 35.53125 
C 21.09375 41.125 27 41.71875 29.296875 41.71875 
C 33.40625 41.71875 37.796875 39.9375 41.09375 35.5625 
z
" id="CMBX12-100"/>
      <path d="M 25.40625 43.46875 
C 15.5 45.625 15.203125 52.75 15.203125 54.140625 
C 15.203125 59.171875 18.5 65.03125 28.203125 65.03125 
C 37.90625 65.03125 46.59375 60.359375 48.703125 47.34375 
C 49 45.25 49 45.25 50.90625 45.25 
C 53 45.25 53 45.546875 53 47.8125 
L 53 66.4375 
C 53 68.3125 53 69.015625 51.5 69.015625 
C 50.796875 69.015625 50.5 68.921875 49.59375 67.921875 
L 45.296875 63.046875 
C 42.796875 65.140625 37.796875 69 28.09375 69 
C 13.796875 69 6.203125 60.09375 6.203125 49.3125 
C 6.203125 42.6875 9.796875 38.03125 11.203125 36.640625 
C 16.40625 31.5 19.203125 30.90625 29.59375 28.625 
C 39.59375 26.453125 40.796875 26.25 43 24.1875 
C 44.296875 22.890625 47.203125 20.125 47.203125 15.078125 
C 47.203125 10.8125 45.09375 3 33.90625 3 
C 25.09375 3 11.203125 5.96875 10.40625 20.421875 
C 10.296875 22.203125 10.296875 22.5 8.296875 22.5 
C 6.203125 22.5 6.203125 22.203125 6.203125 19.921875 
L 6.203125 1.296875 
C 6.203125 -0.59375 6.203125 -1.28125 7.703125 -1.28125 
C 8.40625 -1.28125 8.5 -1.1875 9.5 -0.296875 
C 10.59375 0.796875 11.5 2.09375 14 4.578125 
C 19.796875 0.015625 28 -1.265625 34 -1.265625 
C 49.59375 -1.265625 56.203125 9.21875 56.203125 19.71875 
C 56.203125 29 50 37.90625 39.09375 40.375 
z
" id="CMBX12-83"/>
      <path d="M 13 18.578125 
C 17.796875 16 23.40625 16 24.90625 16 
C 38.703125 16 44.203125 23.65625 44.203125 30.625 
C 44.203125 35.703125 41.296875 39.296875 40.09375 40.28125 
C 43 41.8125 45.40625 42.1875 47.09375 42.390625 
C 46.796875 41.90625 46.5 41.53125 46.5 40.28125 
C 46.5 38.28125 47.90625 36.46875 50.5 36.46875 
C 53.09375 36.46875 54.5 38.359375 54.5 40.4375 
C 54.5 42.828125 52.703125 46 48.5 46 
C 44.203125 46 40.09375 43.796875 38 41.90625 
C 33.90625 44.28125 30 45.171875 24.90625 45.171875 
C 11.09375 45.171875 5.59375 37.546875 5.59375 30.578125 
C 5.59375 27.5 6.59375 23.453125 10.796875 20.078125 
C 9.09375 18.140625 7.296875 14.578125 7.296875 10.921875 
C 7.296875 6.5625 9.59375 2.8125 11.703125 1.1875 
C 9.296875 0.609375 3.09375 -1.640625 3.09375 -7.203125 
C 3.09375 -12.96875 9.59375 -19.5 28 -19.5 
C 44.59375 -19.5 53 -14.21875 53 -6.859375 
C 53 1.78125 47.203125 4.609375 44.703125 5.78125 
C 39.90625 8.140625 33.5 8.140625 24.703125 8.140625 
C 22.203125 8.140625 17.796875 8.140625 17.296875 8.234375 
C 13 8.984375 11.796875 12.953125 11.796875 14.953125 
C 11.796875 15.78125 11.90625 17.296875 13 18.578125 
z
M 24.90625 19.171875 
C 16.203125 19.171875 16.203125 26.015625 16.203125 30.578125 
C 16.203125 35.15625 16.203125 42 24.90625 42 
C 33.59375 42 33.59375 35.15625 33.59375 30.578125 
C 33.59375 26.015625 33.59375 19.171875 24.90625 19.171875 
z
M 30.5 -1 
C 37.796875 -1 44.796875 -2.265625 44.796875 -7.296875 
C 44.796875 -10.703125 41.296875 -16.328125 28.09375 -16.328125 
C 14.90625 -16.328125 11.296875 -10.890625 11.296875 -7.203125 
C 11.296875 -1 17.59375 -1 19.09375 -1 
z
" id="CMBX12-103"/>
      <path d="M 53.09375 30.0625 
C 53.09375 39.453125 49 44.28125 38 44.28125 
C 30.796875 44.28125 24.59375 40.859375 21.203125 33.484375 
L 21.09375 33.484375 
L 21.09375 44 
L 4.203125 44 
L 4.203125 39.328125 
C 10.40625 39.328125 11.09375 39.328125 11.09375 35.46875 
L 11.09375 4.0625 
L 4.203125 4.0625 
L 4.203125 -0.203125 
C 6.5 0 13.703125 0 16.5 0 
C 19.296875 0 26.59375 0 28.90625 -0.203125 
L 28.90625 4.0625 
L 22 4.0625 
L 22 25.109375 
C 22 35.765625 30 41 36.40625 41 
C 40.09375 41 42.203125 38.640625 42.203125 31.140625 
L 42.203125 4.0625 
L 35.296875 4.0625 
L 35.296875 -0.203125 
C 37.59375 0 44.796875 0 47.59375 0 
C 50.40625 0 57.703125 0 60 -0.203125 
L 60 4.0625 
L 53.09375 4.0625 
z
" id="CMBX12-110"/>
      <path d="M 46 29.65625 
C 46 38.8125 38.703125 44.984375 24.59375 44.984375 
C 19 44.984375 7.203125 44.984375 7.203125 36.46875 
C 7.203125 32.203125 10.40625 30.390625 13.09375 30.390625 
C 16.09375 30.390625 19 32.484375 19 36.296875 
C 19 38.203125 18.296875 39.984375 16.59375 41.09375 
C 19.90625 42 22.296875 42 24.203125 42 
C 31 42 35.09375 38.203125 35.09375 29.984375 
L 35.09375 25.984375 
C 19.296875 25.984375 3.40625 21.59375 3.40625 10.5625 
C 3.40625 1.484375 15 -0.5 21.90625 -0.5 
C 29.59375 -0.5 34.5 3.640625 36.5 7.96875 
C 36.5 4.28125 36.5 0 46.59375 0 
L 51.703125 0 
C 53.796875 0 54.59375 0 54.59375 2.265625 
C 54.59375 4.265625 53.703125 4.265625 52.296875 4.265625 
C 46 4.265625 46 5.84375 46 8.15625 
z
M 35.09375 13.78125 
C 35.09375 4.546875 26.703125 2.78125 23.5 2.78125 
C 18.59375 2.78125 14.5 6.09375 14.5 10.71875 
C 14.5 19.890625 25.296875 23 35.09375 23 
z
" id="CMBX12-97"/>
      <path d="M 21.703125 69 
L 4.40625 69 
L 4.40625 64.328125 
C 10.59375 64.328125 11.296875 64.328125 11.296875 60.40625 
L 11.296875 4.0625 
L 4.40625 4.0625 
L 4.40625 -0.203125 
C 6.703125 0 13.796875 0 16.5 0 
C 19.203125 0 26.296875 0 28.59375 -0.203125 
L 28.59375 4.0625 
L 21.703125 4.0625 
z
" id="CMBX12-108"/>
      <path d="M 72.40625 61.734375 
C 73 63.015625 73.40625 64 80.796875 64 
L 82.5 64 
L 82.5 68.171875 
C 79.40625 68.171875 72.203125 68.171875 71.40625 68.171875 
C 68.59375 68.171875 61.5 68.171875 59.203125 68.28125 
L 59.203125 64 
C 61.40625 64 65.09375 64 67.90625 62.90625 
L 67.40625 61.53125 
L 46.90625 15.234375 
L 25.296875 64 
L 34.59375 64 
L 34.59375 68.171875 
C 31.40625 68.171875 21.796875 68.171875 18 68.171875 
C 14.796875 68.171875 4.90625 68.171875 2.40625 68.28125 
L 2.40625 64 
L 11.40625 64 
L 39 1.5625 
C 39.90625 -0.40625 40.796875 -0.5 42.40625 -0.5 
C 44 -0.5 45 -0.5 45.90625 1.5625 
z
" id="CMBX12-86"/>
     </defs>
     <g style="fill:#333333;" transform="translate(19.205978 133.102905)rotate(-90)scale(0.1125 -0.1125)">
      <use transform="scale(0.996264)" xlink:href="#CMBX12-68"/>
      <use transform="translate(85.904786 0)scale(0.996264)" xlink:href="#CMBX12-105"/>
      <use transform="translate(117.038036 0)scale(0.996264)" xlink:href="#CMBX12-111"/>
      <use transform="translate(176.191212 0)scale(0.996264)" xlink:href="#CMBX12-100"/>
      <use transform="translate(238.457712 0)scale(0.996264)" xlink:href="#CMBX12-101"/>
      <use transform="translate(326.95688 0)scale(0.996264)" xlink:href="#CMBX12-83"/>
      <use transform="translate(389.22338 0)scale(0.996264)" xlink:href="#CMBX12-105"/>
      <use transform="translate(420.356631 0)scale(0.996264)" xlink:href="#CMBX12-103"/>
      <use transform="translate(476.396481 0)scale(0.996264)" xlink:href="#CMBX12-110"/>
      <use transform="translate(538.662982 0)scale(0.996264)" xlink:href="#CMBX12-97"/>
      <use transform="translate(593.14617 0)scale(0.996264)" xlink:href="#CMBX12-108"/>
      <use transform="translate(624.27942 0)scale(0.996264)" xlink:href="#CMBX12-115"/>
      <use transform="translate(705.848658 0)scale(0.996264)" xlink:href="#CMBX12-40"/>
      <use transform="translate(749.435208 0)scale(0.996264)" xlink:href="#CMBX12-86"/>
      <use transform="translate(834.071603 0)scale(0.996264)" xlink:href="#CMBX12-41"/>
     </g>
    </g>
   </g>
   <g id="line2d_12">
    <path clip-path="url(#p9ab9e78abd)" d="M 53.486793 77.51687 
L 54.839123 97.172114 
L 55.942463 109.299313 
L 56.692548 116.242149 
L 57.531335 121.488236 
L 57.805225 122.243642 
L 58.401246 123.185485 
L 59.409658 124.145118 
L 59.756689 124.130058 
L 59.935651 123.925788 
L 60.466312 122.768553 
L 60.863141 121.972253 
L 63.54446 121.392276 
L 65.376097 121.207758 
L 65.453907 121.175142 
L 65.471025 121.135093 
L 65.569065 120.527242 
L 65.796269 117.184798 
L 67.761739 87.316862 
L 68.770151 76.058858 
L 69.598045 68.092218 
L 70.485074 62.556183 
L 70.782307 61.744976 
L 71.26317 61.085886 
L 71.764264 61.12659 
L 72.844261 61.54063 
L 73.060572 61.876921 
L 74.022298 63.454574 
L 75.178548 63.736667 
L 78.367185 64.044919 
L 78.457444 64.066092 
L 78.476119 64.10578 
L 78.575715 64.680434 
L 78.788913 67.687474 
L 80.595652 94.848069 
L 81.610289 106.446143 
L 82.540891 115.258685 
L 83.203829 119.190604 
L 83.840311 122.381764 
L 84.265152 123.029147 
L 85.527223 124.099346 
L 85.813562 123.964578 
L 86.180824 123.311676 
L 86.543416 122.761504 
L 89.307213 122.203542 
L 91.408071 121.912925 
L 91.521673 120.927738 
L 91.996312 113.366795 
L 93.731466 87.277768 
L 94.84103 75.03606 
L 95.549097 68.579982 
L 96.28362 63.910106 
L 96.840736 61.532332 
L 97.203329 60.985039 
L 97.502118 60.970233 
L 98.267764 61.179736 
L 98.775083 61.42918 
L 99.125226 61.942781 
L 99.565628 62.472391 
L 100.265914 62.62712 
L 100.882166 62.682253 
L 102.556628 62.930466 
L 103.616395 63.045847 
L 104.416277 63.223105 
L 104.531436 64.199442 
L 105.05276 72.223027 
L 106.669643 96.101004 
L 108.015749 110.830841 
L 108.683355 116.270507 
L 109.548598 121.169342 
L 109.967213 122.672047 
L 110.309575 123.128811 
L 111.490725 123.924609 
L 111.770839 123.75339 
L 112.245478 122.957213 
L 112.500693 122.686819 
L 115.434114 122.086184 
L 117.337337 121.778074 
L 117.450939 120.875203 
L 117.801082 115.381436 
L 119.674737 87.167553 
L 120.740728 75.411371 
L 121.38966 69.521014 
L 122.463432 63.020957 
L 122.955189 61.120721 
L 123.213517 60.82943 
L 123.537205 60.879046 
L 124.195474 61.110703 
L 124.970457 61.680903 
L 125.45132 62.291476 
L 127.51483 62.680523 
L 130.347099 63.12173 
L 130.463814 64.109673 
L 130.958683 71.715604 
L 132.852568 98.932053 
L 134.278039 113.313992 
L 134.922303 117.572693 
L 135.748641 122.075789 
L 136.06766 122.821707 
L 136.705698 123.483408 
L 137.258146 123.876836 
L 137.57561 123.87683 
L 137.793476 123.654471 
L 138.571572 122.302673 
L 138.789439 121.948913 
L 141.013237 121.016939 
L 141.705742 120.973635 
L 142.525855 120.872029 
L 143.366199 120.639352 
L 143.490694 119.450475 
L 144.173862 108.44574 
L 145.547979 87.951993 
L 146.542386 76.833373 
L 147.323594 69.410209 
L 148.52653 62.500289 
L 148.994944 61.019276 
L 149.250159 60.997838 
L 149.816613 61.141959 
L 150.678743 61.548883 
L 151.265428 61.918556 
L 151.270096 61.912657 
L 151.43194 61.533869 
L 151.492632 61.794189 
L 151.606234 62.74837 
L 151.654476 62.20103 
L 151.744735 57.16608 
L 152.010843 37.918117 
L 152.069979 38.486561 
L 152.248941 40.1848 
L 152.286289 40.155282 
L 152.385886 40.110557 
L 152.42479 40.159196 
L 153.10329 41.461546 
L 153.366286 42.085585 
L 154.080578 42.717181 
L 154.214411 42.552104 
L 154.413603 42.28052 
L 154.450952 42.306356 
L 154.642364 42.32468 
L 154.835331 42.311589 
L 155.327088 42.681859 
L 155.383111 42.581512 
L 155.663225 42.238334 
L 156.122302 42.433997 
L 156.154982 42.28493 
L 156.290371 40.740918 
L 156.450658 39.51569 
L 156.486451 39.56416 
L 157.154057 41.038192 
L 157.180512 41.022963 
L 157.659819 40.522131 
L 157.885467 39.700271 
L 157.939934 39.770041 
L 158.145351 40.195102 
L 158.206042 40.096926 
L 158.448808 39.382873 
L 158.537511 39.50716 
L 158.62777 39.57736 
L 158.671344 39.521811 
L 158.875205 39.228675 
L 158.928115 39.272425 
L 159.198893 39.386224 
L 160.554336 39.648944 
L 161.106784 39.557477 
L 161.662344 39.660306 
L 162.084072 40.32864 
L 162.421766 40.786438 
L 162.841937 40.714729 
L 163.475307 40.139695 
L 163.90326 40.230041 
L 164.189599 40.256611 
L 164.880549 40.698443 
L 165.336513 40.70696 
L 165.638414 40.229079 
L 165.806483 40.044504 
L 166.151957 39.66004 
L 166.427403 39.817432 
L 167.733048 40.592445 
L 168.061404 40.452414 
L 170.311657 40.953241 
L 172.189981 41.272924 
L 173.103465 41.487734 
L 173.321332 41.448011 
L 173.564098 41.41355 
L 174.002944 41.574111 
L 174.725017 41.42248 
L 175.000463 41.321378 
L 175.3366 41.294904 
L 175.674294 41.250263 
L 175.965302 41.206752 
L 176.253197 41.148588 
L 176.553542 41.152625 
L 176.755847 41.260943 
L 177.411004 41.665304 
L 179.86823 42.215648 
L 180.282177 42.228874 
L 182.782977 42.34932 
L 183.352544 42.410283 
L 183.901879 42.322849 
L 184.115078 42.338666 
L 185.47052 42.917585 
L 185.856456 42.84768 
L 186.664119 42.779455 
L 187.37063 42.937862 
L 188.74786 43.105331 
L 194.138508 43.800367 
L 194.723636 43.933969 
L 196.038618 43.901448 
L 196.326514 43.846913 
L 196.586398 43.887816 
L 197.025244 43.938755 
L 198.987601 44.008454 
L 200.81457 44.303057 
L 203.064823 44.698267 
L 204.538537 44.6971 
L 206.973977 44.619951 
L 211.460477 44.89133 
L 212.585604 44.974396 
L 215.466115 45.093196 
L 219.577573 44.784021 
L 222.156183 44.908812 
L 223.913123 45.103235 
L 225.046031 45.338201 
L 225.768104 45.392701 
L 228.928729 45.388315 
L 232.473734 45.609996 
L 236.482483 46.017305 
L 238.798097 45.897987 
L 239.493714 45.735729 
L 242.080105 45.709382 
L 244.622922 45.91439 
L 245.774504 46.049984 
L 248.065218 46.3154 
L 253.952291 46.576051 
L 261.481146 47.507308 
L 263.370363 47.393422 
L 265.824477 47.426097 
L 267.996921 47.60766 
L 273.095005 48.046555 
L 273.356445 47.973248 
L 278.589917 48.452652 
L 279.444267 48.591439 
L 280.967778 48.700372 
L 284.352495 48.910964 
L 286.047188 49.184058 
L 286.338196 49.426851 
L 287.908393 49.506873 
L 294.173621 49.657196 
L 295.211601 49.720196 
L 297.553669 49.8275 
L 298.948017 49.817694 
L 299.290379 49.528462 
L 300.614698 49.589948 
L 302.065069 49.767272 
L 302.849389 49.843239 
L 305.869957 50.129682 
L 308.020614 50.19929 
L 310.460723 50.46798 
L 311.598299 50.623095 
L 311.893975 50.755949 
L 312.469766 51.635217 
L 312.930399 51.65878 
L 313.096911 51.746717 
L 313.406594 51.875806 
L 313.889013 51.879066 
L 314.951892 51.709779 
L 315.407856 51.750724 
L 315.686414 51.612299 
L 316.089468 51.51213 
L 318.375514 51.162957 
L 320.328534 51.145559 
L 322.87602 51.267628 
L 324.847715 51.257892 
L 325.219645 50.593773 
L 325.885695 50.582333 
L 326.749381 50.668896 
L 327.911856 50.862888 
L 328.417618 50.878335 
L 330.552713 51.445009 
L 330.899744 51.59168 
L 331.858358 51.66786 
L 334.774661 51.769198 
L 335.937137 51.885291 
L 337.80301 52.152356 
L 337.960186 52.888712 
L 338.333672 54.411827 
L 338.77563 55.308506 
L 339.273611 55.977481 
L 339.600412 56.152305 
L 339.883639 56.06186 
L 340.157528 55.76108 
L 340.994759 54.730504 
L 341.249975 54.631319 
L 341.71372 54.239042 
L 342.406225 53.536689 
L 342.648991 53.43353 
L 344.03867 52.637666 
L 345.045526 52.508078 
L 345.769156 52.459962 
L 347.168172 52.514497 
L 349.030933 52.627 
L 349.278368 52.548184 
L 349.494678 52.535776 
L 349.949086 52.667149 
L 350.758306 52.673413 
L 350.912369 52.041544 
L 351.159803 51.383576 
L 351.593981 51.251114 
L 351.819629 51.378921 
L 352.133979 51.2893 
L 354.930456 51.898651 
L 356.570682 52.608509 
L 356.942612 52.816446 
L 357.630448 52.918401 
L 358.326066 53.057766 
L 358.71667 53.231738 
L 358.928312 53.195993 
L 359.175747 53.130276 
L 359.446524 53.206686 
L 360.213727 53.034871 
L 363.866108 53.396002 
L 364.013947 54.360274 
L 364.816942 60.41454 
L 365.805123 66.839118 
L 366.301548 68.828292 
L 367.297511 71.477721 
L 367.664772 72.039747 
L 367.832841 71.990059 
L 368.147192 71.627173 
L 368.617162 70.928356 
L 368.845922 70.313026 
L 369.329897 67.74286 
L 371.745107 54.217794 
L 372.101475 53.793751 
L 372.535652 53.630545 
L 373.375996 53.568056 
L 375.120487 53.411485 
L 375.355471 53.242544 
L 376.035527 53.484439 
L 376.601981 53.700748 
L 376.700021 53.682289 
L 376.718695 53.648802 
L 376.841635 53.125664 
L 377.166879 51.852702 
L 377.471892 51.714734 
L 378.137942 51.665941 
L 378.892695 51.852264 
L 379.68324 52.10621 
L 380.729001 52.302058 
L 381.374821 52.580819 
L 381.696953 52.657214 
L 381.939718 52.803933 
L 382.887439 53.76254 
L 383.492798 53.962604 
L 384.216427 54.195997 
L 384.778212 54.431699 
L 385.316654 54.160672 
L 386.628524 54.076925 
L 389.708227 54.328391 
L 389.826498 55.101022 
L 390.982748 67.232092 
L 391.921132 76.054061 
L 392.542052 79.925415 
L 393.930175 86.68112 
L 394.404814 87.54614 
L 394.599338 87.664963 
L 394.792305 87.810574 
L 394.983717 87.838341 
L 395.167348 87.550706 
L 395.561064 86.436219 
L 397.134374 80.568824 
L 398.200365 75.191139 
L 401.24272 63.173307 
L 402.71799 57.734945 
L 403.279775 52.312312 
L 403.525653 52.007919 
L 403.882021 51.913565 
L 404.485823 51.992135 
L 406.028009 52.388896 
L 406.396827 52.540991 
L 406.74697 52.787188 
L 407.122012 53.084907 
L 407.70714 53.238494 
L 408.097744 53.421786 
L 409.434513 54.993285 
L 410.360447 55.625921 
L 410.673241 55.815803 
L 411.661423 55.523479 
L 412.795887 55.424491 
L 415.198647 55.601127 
L 415.528559 55.559656 
L 415.6017 55.582818 
L 415.623487 55.631531 
L 415.726196 56.26247 
L 416.054552 60.461442 
L 418.013797 84.463269 
L 419.115581 93.650281 
L 419.562208 96.380315 
L 420.194022 99.013199 
L 420.860072 101.351123 
L 421.147967 101.839434 
L 421.344048 101.809767 
L 421.669292 101.426819 
L 422.725946 99.947703 
L 423.093207 98.942968 
L 424.014473 96.040861 
L 425.500636 92.724463 
L 427.610831 88.55214 
L 428.603682 86.607224 
L 428.757745 84.576124 
L 430.556702 55.017851 
L 430.858603 53.083696 
L 431.087364 52.74456 
L 431.434394 52.703889 
L 431.832779 52.626274 
L 432.17981 52.701341 
L 432.887877 53.248842 
L 433.332948 53.417119 
L 433.602169 53.575877 
L 434.199747 54.004784 
L 435.430695 55.819181 
L 436.26637 56.563125 
L 436.65853 56.97354 
L 437.722965 56.889526 
L 438.563308 56.805124 
L 439.683766 56.830108 
L 441.51696 57.295358 
L 441.621225 57.845445 
L 441.845317 60.645467 
L 443.728309 86.010156 
L 444.543753 94.251134 
L 445.581733 103.199357 
L 446.524785 108.005841 
L 447.11925 110.074452 
L 447.318443 110.251379 
L 447.788413 110.281989 
L 448.298843 110.279666 
L 448.648987 110.075233 
L 448.954 109.638579 
L 449.680742 108.391975 
L 451.926326 105.714232 
L 453.426495 104.180592 
L 454.49093 103.04298 
L 454.623206 101.589388 
L 457.410346 59.918176 
L 458.073283 54.106691 
L 458.337836 53.455428 
L 458.555703 53.352451 
L 459.003886 53.564455 
L 459.920483 54.067707 
L 460.146131 54.329073 
L 461.095408 56.030308 
L 461.795694 56.74618 
L 462.701397 57.36139 
L 464.103526 57.608664 
L 467.4649 58.05498 
L 467.573833 58.835627 
L 467.909971 63.733228 
L 470.015498 92.913114 
L 471.490768 107.178623 
L 472.374685 112.541611 
L 472.972262 114.947495 
L 473.21036 115.307679 
L 473.759695 115.678369 
L 474.293469 115.92162 
L 474.637387 115.838858 
L 474.895715 115.572648 
L 475.373466 115.005788 
L 478.384697 113.016074 
L 478.52631 112.873379 
L 479.044522 111.893022 
L 480.47155 110.993246 
L 480.610051 109.497705 
L 481.596677 93.28685 
L 482.815175 75.258674 
L 484.433614 56.978102 
L 484.747965 55.444351 
L 485.301969 54.174885 
L 485.317531 54.182069 
L 485.552516 54.442297 
L 486.651187 55.991504 
L 487.35303 56.812447 
L 488.065765 57.648996 
L 488.691354 58.565737 
L 489.611064 58.765383 
L 492.063622 59.055234 
L 493.442408 59.180922 
L 493.549785 59.943825 
L 493.892147 64.907737 
L 496.04436 95.047114 
L 497.633232 110.327313 
L 498.389541 114.816102 
L 498.913977 116.741971 
L 499.306138 117.180746 
L 500.482619 117.743852 
L 500.838987 117.514174 
L 501.333855 116.508902 
L 501.593739 116.160556 
L 502.809125 115.624903 
L 504.077421 115.147612 
L 506.38681 114.214424 
L 506.512861 113.080367 
L 506.995281 105.318731 
L 508.814469 77.980222 
L 510.054754 64.535237 
L 510.632101 59.910661 
L 511.368179 56.259422 
L 511.769677 55.200467 
L 511.975094 55.159236 
L 512.194517 55.350498 
L 513.601314 57.247342 
L 514.010593 57.820495 
L 514.601946 58.651917 
L 516.315313 59.126847 
L 517.969544 59.439685 
L 519.075997 59.583315 
L 519.270521 59.513071 
L 519.357667 59.600115 
L 519.460376 60.24794 
L 519.709367 63.799175 
L 520.345849 73.437717 
L 520.345849 73.437717 
" style="fill:none;stroke:#006ba4;stroke-linecap:square;stroke-width:1.5;"/>
   </g>
   <g id="line2d_13">
    <path clip-path="url(#p9ab9e78abd)" d="M 53.486793 79.03507 
L 54.892034 98.319808 
L 56.091858 110.889346 
L 56.743902 116.40084 
L 57.585802 121.409302 
L 57.903265 122.177225 
L 58.338998 122.893917 
L 59.498361 124.090667 
L 59.853173 124.052035 
L 60.165967 123.606875 
L 60.498992 122.860755 
L 60.856917 122.252112 
L 62.623194 122.011265 
L 65.372985 121.882653 
L 65.455463 121.860903 
L 65.475693 121.81686 
L 65.57529 121.222009 
L 65.814943 117.892387 
L 67.925139 88.052059 
L 69.299256 73.853967 
L 69.884384 69.588037 
L 70.741846 65.234754 
L 71.283401 64.382653 
L 71.915215 64.301191 
L 72.754002 64.441162 
L 72.9672 64.614537 
L 73.500974 65.613757 
L 73.812212 66.126797 
L 74.436245 66.244354 
L 75.44777 66.345927 
L 78.499461 66.52732 
L 78.61462 67.363001 
L 78.991218 72.70827 
L 81.224353 102.630967 
L 82.582908 115.366132 
L 83.343886 119.735348 
L 83.891666 122.203869 
L 84.346074 122.893371 
L 85.343592 123.995489 
L 85.698404 124.032177 
L 85.89604 123.860357 
L 86.697479 122.918502 
L 91.232222 122.618439 
L 91.362942 122.665277 
L 91.392509 122.604991 
L 91.492106 121.976151 
L 91.753546 118.271823 
L 93.885528 88.168475 
L 95.276764 74.042687 
L 95.861892 69.903579 
L 96.868748 64.857935 
L 97.232897 64.282035 
L 97.592377 64.204676 
L 98.420271 64.246029 
L 98.857561 64.450303 
L 99.721247 65.240062 
L 103.57749 65.417021 
L 104.417834 65.527941 
L 104.532992 66.438998 
L 105.043423 73.792288 
L 106.708548 97.033032 
L 108.102896 111.535051 
L 108.767389 116.529418 
L 109.842718 122.020015 
L 110.189749 122.727048 
L 111.140582 123.681081 
L 111.514068 123.813866 
L 111.767727 123.709718 
L 112.240809 123.029351 
L 112.497581 122.797733 
L 114.754059 122.537794 
L 117.334225 122.396295 
L 117.444714 121.626695 
L 117.75284 117.181618 
L 119.693411 89.532632 
L 120.840324 77.430177 
L 121.430121 72.495064 
L 122.483663 66.266251 
L 122.967638 64.416181 
L 123.23686 64.07928 
L 123.689711 64.047277 
L 124.265502 64.140834 
L 124.900428 64.422471 
L 125.578928 65.049662 
L 126.977944 65.191071 
L 128.806469 65.252579 
L 130.353324 65.380305 
L 130.471595 66.351858 
L 131.028711 74.422093 
L 132.77009 98.35252 
L 134.063285 111.39851 
L 135.045242 118.017591 
L 135.720629 121.544366 
L 136.061435 122.439011 
L 136.735266 123.222105 
L 137.323506 123.682538 
L 137.623851 123.691174 
L 137.879067 123.408941 
L 138.626039 122.250732 
L 138.820563 122.077255 
L 140.796926 121.432788 
L 141.696405 121.411497 
L 142.810638 121.381764 
L 143.182568 121.391376 
L 143.319513 121.385157 
L 143.335075 121.350576 
L 143.434671 120.770834 
L 143.65565 117.664926 
L 145.350343 92.887651 
L 146.224923 83.14291 
L 147.472989 71.652587 
L 148.458058 66.067999 
L 148.973157 64.263584 
L 149.220592 64.160048 
L 149.780821 64.154159 
L 150.770559 64.444622 
L 151.195399 64.640995 
L 151.565773 64.538934 
L 151.657588 64.313263 
L 151.704274 64.459162 
L 151.838106 65.63999 
L 151.891017 64.943947 
L 151.985944 58.96074 
L 152.247385 39.770847 
L 152.292514 40.1374 
L 152.566404 42.440635 
L 153.101734 43.540519 
L 153.378736 43.98404 
L 153.750666 44.400426 
L 153.808245 44.34916 
L 153.960752 44.364816 
L 154.39026 44.60276 
L 155.579191 45.336712 
L 155.723917 45.597136 
L 155.773715 45.470296 
L 155.881092 44.385062 
L 156.109852 42.252549 
L 156.13942 42.276086 
L 156.273252 42.414674 
L 156.323051 42.342498 
L 156.494232 42.077748 
L 156.545586 42.136886 
L 156.722992 42.368028 
L 156.771234 42.308905 
L 157.045123 41.851412 
L 157.107371 41.926162 
L 157.392154 42.221878 
L 157.399935 42.217423 
L 157.910366 41.795318 
L 158.12512 41.77972 
L 158.39901 42.103661 
L 158.621546 42.20409 
L 159.22846 41.691991 
L 159.374742 41.59468 
L 159.393417 41.605244 
L 160.615027 42.237692 
L 161.080328 42.561796 
L 161.575197 42.810757 
L 162.585166 43.259033 
L 162.771909 43.070333 
L 162.969545 43.028923 
L 164.852537 43.567444 
L 165.319395 42.908774 
L 165.557492 42.984949 
L 166.271784 43.631751 
L 166.56746 43.434205 
L 166.889592 43.203713 
L 167.295758 43.043183 
L 167.522962 43.031612 
L 169.416847 43.573684 
L 170.336557 43.873887 
L 170.787852 44.07672 
L 171.458571 44.183288 
L 172.000125 44.237882 
L 172.896492 44.444957 
L 173.193724 44.326338 
L 173.760178 44.19271 
L 174.415335 43.879995 
L 174.684556 43.980659 
L 174.919541 43.92883 
L 175.591816 43.722625 
L 176.018212 43.822304 
L 176.592447 43.899135 
L 177.021956 43.827074 
L 177.252272 43.777195 
L 178.988982 44.179612 
L 180.000507 44.400144 
L 180.756816 44.738491 
L 181.749666 45.004819 
L 182.269434 45.125325 
L 182.975945 45.23536 
L 184.963202 45.140796 
L 185.465852 45.245115 
L 185.72418 45.213501 
L 186.078991 45.213849 
L 188.752529 45.470075 
L 189.879211 45.539944 
L 191.422954 45.875449 
L 192.375343 45.889346 
L 193.098972 45.922933 
L 194.339257 45.9788 
L 194.768766 46.227912 
L 195.129802 46.297141 
L 196.368531 46.074087 
L 199.639646 46.257959 
L 201.128921 46.423017 
L 202.462577 46.555999 
L 203.570586 46.614059 
L 206.272134 46.585807 
L 207.608903 46.763976 
L 208.925441 46.918433 
L 210.369587 47.035744 
L 213.271885 46.99151 
L 214.074879 47.010377 
L 217.342882 47.177733 
L 218.349738 47.10809 
L 220.480164 47.246144 
L 222.612147 47.229071 
L 223.794853 47.338258 
L 225.036694 47.447322 
L 229.621234 47.643517 
L 230.460022 47.680639 
L 233.065086 47.817867 
L 234.213556 47.928023 
L 234.534131 48.016422 
L 236.605422 48.056322 
L 238.35925 48.114208 
L 238.98484 48.142424 
L 240.855382 48.07048 
L 242.369556 48.150115 
L 244.649377 48.236534 
L 247.129947 48.273511 
L 247.411617 48.184048 
L 248.480721 48.232806 
L 251.58688 48.414605 
L 252.453678 48.452391 
L 254.156152 48.601653 
L 255.057187 48.677085 
L 256.062487 48.760919 
L 260.075905 49.043461 
L 260.443166 49.288851 
L 262.614054 49.284799 
L 263.29411 49.344022 
L 266.464072 49.459685 
L 270.615991 49.611825 
L 272.293566 49.694013 
L 273.02342 49.632109 
L 273.343995 49.363967 
L 277.005714 49.820527 
L 278.023464 49.944519 
L 278.706632 50.101369 
L 279.287091 50.183091 
L 280.749911 50.239885 
L 283.866963 50.33176 
L 286.019176 50.742387 
L 286.400443 51.397398 
L 286.960672 51.522736 
L 287.836808 51.543713 
L 289.161127 51.417504 
L 289.459916 51.36575 
L 289.814728 51.306449 
L 291.145272 51.198916 
L 291.721063 51.042694 
L 292.136566 51.031766 
L 293.179214 51.032136 
L 295.035751 51.128715 
L 297.046351 51.224666 
L 298.891994 51.234236 
L 299.484903 50.550358 
L 301.442592 50.720808 
L 302.071293 50.798844 
L 302.519477 50.891854 
L 303.070369 51.01452 
L 304.094343 51.212606 
L 304.702814 51.488481 
L 305.098086 51.652713 
L 306.973297 51.823779 
L 307.413699 51.781422 
L 309.64061 51.914749 
L 311.823947 52.039187 
L 311.94533 52.330561 
L 312.541351 54.119051 
L 312.844808 54.354588 
L 313.065788 54.333261 
L 313.540426 54.708581 
L 313.81276 54.686912 
L 314.254718 54.334153 
L 314.945667 53.772659 
L 315.516789 53.769145 
L 316.570331 53.094309 
L 316.948486 53.001377 
L 317.544507 52.761954 
L 317.925774 52.520668 
L 320.496603 52.504517 
L 324.226794 52.677122 
L 324.822816 52.591125 
L 325.370595 51.347294 
L 326.021083 51.317186 
L 326.91745 51.473057 
L 328.943611 51.987699 
L 329.723263 52.252727 
L 330.543376 52.60166 
L 330.909081 52.893701 
L 331.491097 53.020182 
L 333.143773 53.107113 
L 335.789298 53.288698 
L 337.798342 53.57082 
L 337.927506 54.299367 
L 339.234707 63.75027 
L 340.012803 68.288754 
L 340.499891 70.002011 
L 341.821097 73.241257 
L 342.110549 73.22983 
L 342.9151 72.586647 
L 343.378845 71.37938 
L 343.903282 68.893366 
L 345.138898 62.672892 
L 346.234457 56.726606 
L 346.741775 55.079918 
L 347.135492 54.460257 
L 347.550995 54.206769 
L 348.291742 54.114596 
L 349.331278 53.979221 
L 349.511796 53.973641 
L 349.997328 54.153716 
L 350.755194 54.187929 
L 350.884358 53.530305 
L 351.198708 52.132556 
L 351.545739 51.777185 
L 351.57375 51.804598 
L 351.825853 51.966042 
L 351.839859 51.9541 
L 352.113749 51.860529 
L 353.193746 52.143452 
L 353.928268 52.311941 
L 354.45893 52.397068 
L 356.355927 53.370917 
L 357.239844 54.29522 
L 358.726007 55.108396 
L 358.946987 55.153468 
L 359.183528 55.129047 
L 359.479204 55.273404 
L 361.436893 54.946743 
L 363.844322 55.03098 
L 363.962592 55.737513 
L 364.441899 61.018515 
L 366.099243 78.437355 
L 367.104543 85.745721 
L 367.761256 89.750461 
L 368.32771 91.621784 
L 368.853703 92.992556 
L 369.021771 92.919915 
L 369.469955 92.497709 
L 370.917213 89.973811 
L 373.976686 82.170762 
L 375.114262 79.298786 
L 375.559333 77.583558 
L 376.597312 74.914331 
L 376.726476 74.563207 
L 376.863421 73.227992 
L 377.689759 60.119034 
L 378.234426 53.391694 
L 378.486529 52.545792 
L 378.738632 52.387384 
L 379.098112 52.477997 
L 380.179666 52.685992 
L 380.466005 52.795989 
L 382.087557 53.879102 
L 383.130205 55.316514 
L 383.856947 55.810843 
L 384.281787 56.163751 
L 384.879364 56.645479 
L 385.515847 56.499298 
L 388.209615 56.365446 
L 389.712896 56.517773 
L 389.831166 57.392205 
L 390.46298 65.467221 
L 392.266606 87.210798 
L 393.69519 99.338023 
L 394.376802 102.949712 
L 394.842104 104.799257 
L 395.154898 105.552785 
L 395.470805 105.759173 
L 396.357834 105.653409 
L 396.765556 105.349379 
L 397.107919 104.823857 
L 398.038521 102.803791 
L 399.797018 100.570416 
L 401.119781 99.042456 
L 402.266694 97.780167 
L 402.679085 97.101859 
L 402.842485 95.02571 
L 404.783056 65.388057 
L 405.537809 57.005351 
L 406.009335 53.766427 
L 406.278556 53.213701 
L 406.597575 53.128637 
L 406.801436 53.333861 
L 407.188928 53.619277 
L 408.153767 54.062528 
L 409.552783 56.07713 
L 410.332435 56.869339 
L 410.702809 57.271786 
L 411.65053 57.286016 
L 413.153811 57.277138 
L 415.649942 57.472014 
L 415.775994 58.545879 
L 416.649017 70.421543 
L 418.13518 88.993577 
L 419.481286 101.095286 
L 420.475693 106.668998 
L 421.185316 109.419068 
L 421.471655 109.70942 
L 422.574995 109.999666 
L 422.889346 109.81519 
L 423.172573 109.338674 
L 423.837067 108.180291 
L 425.765188 106.608197 
L 427.425645 105.504093 
L 428.258207 104.926086 
L 428.474518 104.879659 
L 428.560108 104.766315 
L 428.665929 104.040707 
L 428.939819 99.902646 
L 431.034453 69.421742 
L 432.248283 57.011306 
L 432.696466 54.754331 
L 433.006148 54.189025 
L 433.508798 53.942697 
L 434.195078 54.321314 
L 435.824411 56.730027 
L 436.376859 57.489817 
L 436.661642 57.807897 
L 438.715815 58.109236 
L 440.203534 58.399425 
L 440.505436 58.513398 
L 441.501398 58.747251 
L 441.599438 59.150026 
L 441.783069 61.162987 
L 444.109576 91.282931 
L 445.505479 104.277819 
L 446.534122 110.095353 
L 447.159711 112.574444 
L 447.39314 112.834196 
L 447.864666 113.244649 
L 448.438901 113.598454 
L 448.776594 113.562525 
L 449.010023 113.330512 
L 449.43642 112.907264 
L 450.208291 112.49784 
L 454.343092 110.850348 
L 454.439576 110.820998 
L 454.455138 110.785307 
L 454.553178 110.194781 
L 454.777269 106.949802 
L 456.660261 79.153258 
L 457.523948 69.559137 
L 458.547922 59.729062 
L 459.142387 56.375548 
L 459.470743 55.374013 
L 459.813106 54.85107 
L 460.10567 54.795319 
L 460.306418 55.134947 
L 460.919558 56.112239 
L 461.820593 57.084842 
L 462.634481 57.739343 
L 463.681798 58.078737 
L 465.578796 58.516598 
L 467.278157 58.787442 
L 467.446226 58.785832 
L 467.460231 58.821271 
L 467.564496 59.468658 
L 467.835274 63.16522 
L 469.937689 91.65858 
L 471.286907 105.018889 
L 471.892265 109.241815 
L 472.970706 114.621442 
L 473.235259 115.111318 
L 473.846842 115.785827 
L 474.33393 116.167596 
L 474.724534 116.196766 
L 474.945513 116.004537 
L 475.298769 115.734432 
L 477.821356 115.006022 
L 478.563659 114.699099 
L 478.924695 114.014557 
L 479.212591 113.994724 
L 480.449763 113.707014 
L 480.563365 112.836421 
L 480.862154 108.178141 
L 481.44417 99.596079 
L 482.80895 80.409366 
L 484.523873 61.965754 
L 485.180586 58.027328 
L 485.462257 57.027327 
L 485.810844 56.574389 
L 486.170324 56.470234 
L 486.663637 56.845281 
L 488.176255 58.339879 
L 488.583977 58.961854 
L 489.537923 59.183306 
L 491.374229 59.482317 
L 493.459526 59.795336 
L 493.579352 60.773107 
L 494.167593 69.11517 
L 496.019461 93.787521 
L 497.577209 108.557121 
L 498.395766 113.455771 
L 498.915534 115.421956 
L 499.337262 116.002937 
L 500.513742 116.904996 
L 500.840543 116.784193 
L 501.243596 116.16891 
L 501.612414 115.714653 
L 502.223997 115.576843 
L 506.277876 115.023009 
L 506.365023 114.929731 
L 506.470844 114.274691 
L 506.722947 110.768042 
L 508.702423 82.241938 
L 509.844668 70.187529 
L 510.555847 64.034689 
L 511.455326 59.12952 
L 511.908178 57.454233 
L 512.186736 57.145904 
L 512.41394 57.242289 
L 513.84408 58.283514 
L 514.331168 59.096846 
L 514.564597 59.246964 
L 517.88551 59.860869 
L 518.996631 59.987579 
L 519.281414 59.944314 
L 519.363892 60.047802 
L 519.472826 60.759441 
L 519.773171 64.889931 
L 520.345849 73.102685 
L 520.345849 73.102685 
" style="fill:none;stroke:#ff800e;stroke-linecap:square;stroke-width:1.5;"/>
   </g>
   <g id="patch_3">
    <path d="M 53.486793 136.91203 
L 53.486793 28.32 
" style="fill:none;stroke:#333333;stroke-linecap:square;stroke-linejoin:miter;stroke-width:1.5;"/>
   </g>
   <g id="patch_4">
    <path d="M 53.486793 136.91203 
L 520.344293 136.91203 
" style="fill:none;stroke:#333333;stroke-linecap:square;stroke-linejoin:miter;stroke-width:1.5;"/>
   </g>
   <g id="text_14">
    <!-- \textbf{Raw Diode Trace} -->
    <defs>
     <path d="M 52.90625 33.65625 
C 66.40625 37.234375 69.703125 44.359375 69.703125 49.734375 
C 69.703125 59.671875 59.203125 68 40.703125 68 
L 3.796875 68 
L 3.796875 63.71875 
L 14.40625 63.71875 
L 14.40625 4.171875 
L 3.796875 4.171875 
L 3.796875 0 
C 6.703125 0 17.09375 0 20.703125 0 
C 24.296875 0 34.796875 0 37.703125 0 
L 37.703125 4.171875 
L 27.09375 4.171875 
L 27.09375 32.71875 
L 39 32.71875 
C 43 32.71875 46.203125 31.515625 48.40625 28.890625 
C 51.40625 25.46875 51.40625 23.25 51.40625 16.515625 
C 51.40625 9.78125 51.40625 5.671875 56.5 2.25 
C 61.703125 -1.28125 69.90625 -1.28125 72.09375 -1.28125 
C 82.296875 -1.28125 83.5 7.71875 83.5 9.109375 
C 83.5 10.8125 82.703125 11.109375 81.40625 11.109375 
C 79.5 11.109375 79.40625 10.421875 79.296875 9.109375 
C 78.796875 4.09375 75.703125 2 72.90625 2 
C 66.5 2 65.796875 8.65625 65 17.765625 
C 64.40625 23.03125 63.703125 30.375 52.90625 33.65625 
z
M 38.796875 36 
L 27.09375 36 
L 27.09375 63.71875 
L 39 63.71875 
C 55.296875 63.71875 55.59375 55.6875 55.59375 49.90625 
C 55.59375 44.515625 55.5 36 38.796875 36 
z
" id="CMBX12-82"/>
     <path d="M 72 37.4375 
C 72.703125 39.125 73 39.828125 78.796875 39.828125 
L 78.796875 44 
C 75.90625 44 74.59375 44 71 44 
C 66.90625 44 65.59375 44 62 44 
L 62 39.828125 
C 62.90625 39.828125 67.796875 39.828125 67.796875 38.53125 
C 67.796875 38.4375 67.796875 38.328125 67.40625 37.34375 
L 56.90625 11.515625 
L 45.40625 39.828125 
L 51.09375 39.828125 
L 51.09375 44.09375 
C 48.703125 44 42.796875 44 40.09375 44 
C 35 44 34.796875 44 29.796875 44 
L 29.796875 39.828125 
L 35.703125 39.828125 
C 36 39.03125 36.5 37.734375 36.90625 36.84375 
C 37.203125 36.25 38.203125 33.859375 38.203125 33.359375 
C 38.203125 33.171875 37.90625 32.46875 37.796875 32.171875 
L 30.203125 13.40625 
L 19.40625 39.828125 
L 25.09375 39.828125 
L 25.09375 44.09375 
C 22.796875 44 16 44 13.296875 44 
C 10.09375 44 5.296875 44 2.296875 44 
L 2.296875 39.828125 
L 8.203125 39.828125 
L 23.5 1.984375 
C 24.203125 0.203125 24.59375 -0.5 26.796875 -0.5 
C 27.90625 -0.5 29.09375 -0.5 29.90625 1.484375 
L 40.5 27.8125 
L 51.09375 1.6875 
C 52 -0.5 53.09375 -0.5 54.296875 -0.5 
C 56.5 -0.5 56.796875 0.09375 57.5 1.890625 
z
" id="CMBX12-119"/>
     <path d="M 20.796875 22.046875 
C 20.796875 25.296875 21.5 41 33.203125 41 
C 31.796875 39.921875 31.09375 38.25 31.09375 36.5 
C 31.09375 32.484375 34.40625 30.8125 36.90625 30.8125 
C 39.40625 30.8125 42.703125 32.484375 42.703125 36.515625 
C 42.703125 41.53125 37.5 44.28125 32.703125 44.28125 
C 24.796875 44.28125 21.40625 37.515625 20 33.390625 
L 19.90625 33.390625 
L 19.90625 44 
L 3.5 44 
L 3.5 39.328125 
C 9.703125 39.328125 10.40625 39.328125 10.40625 35.46875 
L 10.40625 4.0625 
L 3.5 4.0625 
L 3.5 -0.203125 
C 5.796875 0 13.296875 0 16.09375 0 
C 19 0 27.09375 0 29.5 -0.203125 
L 29.5 4.0625 
L 20.796875 4.0625 
z
" id="CMBX12-114"/>
     <path d="M 46.796875 11.765625 
C 46.796875 12.953125 45.703125 12.953125 44.703125 12.953125 
C 43.09375 12.953125 43 12.859375 42.5 11.671875 
C 41.796875 9.765625 39.09375 3.078125 29.90625 3.078125 
C 15.796875 3.078125 15.796875 18.21875 15.796875 22.703125 
C 15.796875 28.578125 15.90625 41.625 29 41.625 
C 29.703125 41.625 35.59375 41.625 35.59375 41.125 
C 35.59375 41 35.5 40.90625 35.296875 40.8125 
C 35 40.515625 33.703125 39 33.703125 36.46875 
C 33.703125 32.25 37.09375 30.53125 39.59375 30.53125 
C 41.703125 30.53125 45.5 31.859375 45.5 36.65625 
C 45.5 45 34 45 28.59375 45 
C 10.796875 45 3.796875 33.515625 3.796875 22.09375 
C 3.796875 8.625 13.296875 -0.5 28 -0.5 
C 43.703125 -0.5 46.796875 11.0625 46.796875 11.765625 
z
" id="CMBX12-99"/>
    </defs>
    <g transform="translate(223.161563 22.32)scale(0.15 -0.15)">
     <use transform="scale(0.996264)" xlink:href="#CMBX12-82"/>
     <use transform="translate(83.598675 0)scale(0.996264)" xlink:href="#CMBX12-97"/>
     <use transform="translate(134.968538 0)scale(0.996264)" xlink:href="#CMBX12-119"/>
     <use transform="translate(253.27489 0)scale(0.996264)" xlink:href="#CMBX12-68"/>
     <use transform="translate(339.179675 0)scale(0.996264)" xlink:href="#CMBX12-105"/>
     <use transform="translate(370.312926 0)scale(0.996264)" xlink:href="#CMBX12-111"/>
     <use transform="translate(429.466101 0)scale(0.996264)" xlink:href="#CMBX12-100"/>
     <use transform="translate(491.732602 0)scale(0.996264)" xlink:href="#CMBX12-101"/>
     <use transform="translate(580.231769 0)scale(0.996264)" xlink:href="#CMBX12-84"/>
     <use transform="translate(648.840165 0)scale(0.996264)" xlink:href="#CMBX12-114"/>
     <use transform="translate(694.617672 0)scale(0.996264)" xlink:href="#CMBX12-97"/>
     <use transform="translate(749.10086 0)scale(0.996264)" xlink:href="#CMBX12-99"/>
     <use transform="translate(798.914061 0)scale(0.996264)" xlink:href="#CMBX12-101"/>
    </g>
   </g>
   <g id="legend_1">
    <g id="patch_5">
     <path d="M 60.486793 53.335154 
L 126.387512 53.335154 
Q 128.387512 53.335154 128.387512 51.335154 
L 128.387512 24.460797 
Q 128.387512 22.460797 126.387512 22.460797 
L 60.486793 22.460797 
Q 58.486793 22.460797 58.486793 24.460797 
L 58.486793 51.335154 
Q 58.486793 53.335154 60.486793 53.335154 
z
" style="fill:none;opacity:0.8;"/>
    </g>
    <g id="line2d_14">
     <path d="M 62.486793 29.960797 
L 82.486793 29.960797 
" style="fill:none;stroke:#006ba4;stroke-linecap:square;stroke-width:1.5;"/>
    </g>
    <g id="line2d_15"/>
    <g id="text_15">
     <!-- Diode 0 -->
     <defs>
      <path d="M 5.203125 68 
L 5.203125 65.40625 
C 12.09375 65.40625 13.203125 65.40625 13.203125 60.9375 
L 13.203125 7.0625 
C 13.203125 2.59375 12.09375 2.59375 5.203125 2.59375 
L 5.203125 0 
L 37 0 
C 53.09375 0 66 14.734375 66 33.453125 
C 66 52.28125 53.296875 68 37 68 
z
M 23.796875 2.59375 
C 19.796875 2.59375 19.59375 3.078125 19.59375 6.46875 
L 19.59375 61.53125 
C 19.59375 64.921875 19.796875 65.40625 23.796875 65.40625 
L 35 65.40625 
C 43.296875 65.40625 58.59375 60.53125 58.59375 33.453125 
C 58.59375 19.40625 54.5 13.734375 52.59375 11.046875 
C 50.203125 7.96875 44.5 2.59375 35 2.59375 
z
" id="CMR17-68"/>
      <path d="M 15.5 61.078125 
C 15.5 63.265625 13.703125 65.15625 11.40625 65.15625 
C 9.203125 65.15625 7.296875 63.375 7.296875 61.078125 
C 7.296875 58.890625 9.09375 57 11.40625 57 
C 13.59375 57 15.5 58.796875 15.5 61.078125 
z
M 3.796875 42.28125 
L 3.796875 39.703125 
C 9.40625 39.703125 10.203125 39.09375 10.203125 34.328125 
L 10.203125 6.671875 
C 10.203125 2.875 9.796875 2.390625 3.40625 2.390625 
L 3.40625 -0.203125 
C 5.796875 0 10.09375 0 12.59375 0 
C 15 0 19.09375 0 21.40625 -0.203125 
L 21.40625 2.390625 
C 15.5 2.390625 15.296875 2.984375 15.296875 6.5625 
L 15.296875 43.375 
z
" id="CMR17-105"/>
      <path d="M 43.09375 21.1875 
C 43.09375 34 33.796875 44 22.90625 44 
C 12 44 2.703125 34 2.703125 21.1875 
C 2.703125 8.609375 12 -1 22.90625 -1 
C 33.796875 -1 43.09375 8.609375 43.09375 21.1875 
z
M 22.90625 0.796875 
C 18.203125 0.796875 14.203125 3.59375 11.90625 7.5 
C 9.40625 11.984375 9.09375 17.59375 9.09375 22 
C 9.09375 26.203125 9.296875 31.40625 11.90625 35.90625 
C 13.90625 39.203125 17.796875 42.40625 22.90625 42.40625 
C 27.40625 42.40625 31.203125 39.90625 33.59375 36.40625 
C 36.703125 31.703125 36.703125 25.109375 36.703125 22 
C 36.703125 18.09375 36.5 12.109375 33.796875 7.296875 
C 31 2.703125 26.703125 0.796875 22.90625 0.796875 
z
" id="CMR17-111"/>
      <path d="M 29.203125 67.59375 
L 29.203125 65 
C 35.09375 65 36 64.40625 36 59.6875 
L 36 36.640625 
C 35.59375 37.140625 31.5 43.59375 23.40625 43.59375 
C 13.203125 43.59375 3.296875 34.5 3.296875 21.3125 
C 3.296875 8.203125 12.59375 -1 22.40625 -1 
C 30.90625 -1 35.296875 5.265625 35.796875 5.9375 
L 35.796875 -0.984375 
L 47.90625 -0.984375 
L 47.90625 2 
C 42 2 41.09375 2.59375 41.09375 7.390625 
L 41.09375 68.6875 
z
M 35.796875 11.796875 
C 35.796875 8.796875 34 6.09375 31.703125 4.09375 
C 28.296875 1.09375 24.90625 0.59375 23 0.59375 
C 20.09375 0.59375 9.703125 2.09375 9.703125 21.1875 
C 9.703125 40.8125 21.296875 42 23.90625 42 
C 28.5 42 32.203125 39.40625 34.5 35.796875 
C 35.796875 33.703125 35.796875 33.40625 35.796875 31.609375 
z
" id="CMR17-100"/>
      <path d="M 38.09375 23 
C 38.5 23.40625 38.5 23.609375 38.5 24.625 
C 38.5 34.96875 33.09375 44 21.703125 44 
C 11.09375 44 2.703125 33.890625 2.703125 21.609375 
C 2.703125 8.609375 12.203125 -1 22.796875 -1 
C 34 -1 38.40625 9.484375 38.40625 11.5625 
C 38.40625 12.25 37.796875 12.25 37.59375 12.25 
C 36.90625 12.25 36.796875 12.046875 36.40625 10.875 
C 34.203125 4.140625 28.703125 0.796875 23.5 0.796875 
C 19.203125 0.796875 14.90625 3.171875 12.203125 7.5 
C 9.09375 12.546875 9.09375 18.375 9.09375 23 
z
M 9.203125 24.5 
C 9.90625 39.140625 17.59375 42.40625 21.59375 42.40625 
C 28.40625 42.40625 33 35.890625 33.09375 24.5 
z
" id="CMR17-101"/>
     </defs>
     <g style="fill:#333333;" transform="translate(90.486793 33.460797)scale(0.1 -0.1)">
      <use transform="scale(0.996264)" xlink:href="#CMR17-68"/>
      <use transform="translate(70.393556 0)scale(0.996264)" xlink:href="#CMR17-105"/>
      <use transform="translate(95.264614 0)scale(0.996264)" xlink:href="#CMR17-111"/>
      <use transform="translate(143.55753 0)scale(0.996264)" xlink:href="#CMR17-100"/>
      <use transform="translate(194.4529 0)scale(0.996264)" xlink:href="#CMR17-101"/>
      <use transform="translate(265.014527 0)scale(0.996264)" xlink:href="#CMR17-48"/>
     </g>
    </g>
    <g id="line2d_16">
     <path d="M 62.486793 43.897975 
L 82.486793 43.897975 
" style="fill:none;stroke:#ff800e;stroke-linecap:square;stroke-width:1.5;"/>
    </g>
    <g id="line2d_17"/>
    <g id="text_16">
     <!-- Diode 1 -->
     <g style="fill:#333333;" transform="translate(90.486793 47.397975)scale(0.1 -0.1)">
      <use transform="scale(0.996264)" xlink:href="#CMR17-68"/>
      <use transform="translate(70.393556 0)scale(0.996264)" xlink:href="#CMR17-105"/>
      <use transform="translate(95.264614 0)scale(0.996264)" xlink:href="#CMR17-111"/>
      <use transform="translate(143.55753 0)scale(0.996264)" xlink:href="#CMR17-100"/>
      <use transform="translate(194.4529 0)scale(0.996264)" xlink:href="#CMR17-101"/>
      <use transform="translate(265.014527 0)scale(0.996264)" xlink:href="#CMR17-49"/>
     </g>
    </g>
   </g>
  </g>
 </g>
 <defs>
  <clipPath id="p9ab9e78abd">
   <rect height="108.59203" width="466.8575" x="53.486793" y="28.32"/>
  </clipPath>
 </defs>
</svg>
