<?xml version="1.0" encoding="UTF-8" standalone="no"?>
<svg
   xmlns:dc="http://purl.org/dc/elements/1.1/"
   xmlns:cc="http://creativecommons.org/ns#"
   xmlns:rdf="http://www.w3.org/1999/02/22-rdf-syntax-ns#"
   xmlns:svg="http://www.w3.org/2000/svg"
   xmlns="http://www.w3.org/2000/svg"
   xmlns:sodipodi="http://sodipodi.sourceforge.net/DTD/sodipodi-0.dtd"
   xmlns:inkscape="http://www.inkscape.org/namespaces/inkscape"
   inkscape:version="1.0 (4035a4fb49, 2020-05-01)"
   sodipodi:docname="bolt pattern.svg"
   viewBox="0 0 327.47867 450.94531"
   height="450.94531"
   width="327.47867"
   xml:space="preserve"
   id="svg1568"
   version="1.1"><metadata
     id="metadata1574"><rdf:RDF><cc:Work
         rdf:about=""><dc:format>image/svg+xml</dc:format><dc:type
           rdf:resource="http://purl.org/dc/dcmitype/StillImage" /><dc:title></dc:title></cc:Work></rdf:RDF></metadata><defs
     id="defs1572" /><sodipodi:namedview
     inkscape:pagecheckerboard="true"
     inkscape:current-layer="g1576"
     inkscape:window-maximized="1"
     inkscape:window-y="-8"
     inkscape:window-x="-8"
     inkscape:cy="263.00598"
     inkscape:cx="151.80601"
     inkscape:zoom="0.77651515"
     showgrid="false"
     id="namedview1570"
     inkscape:window-height="987"
     inkscape:window-width="1680"
     inkscape:pageshadow="2"
     inkscape:pageopacity="0"
     guidetolerance="10"
     gridtolerance="10"
     objecttolerance="10"
     borderopacity="1"
     bordercolor="#666666"
     pagecolor="#ffffff" /><g
     transform="matrix(1.3333333,0,0,-1.3333333,-256.19399,791.00598)"
     inkscape:label="test"
     inkscape:groupmode="layer"
     id="g1576"><text
       id="text1614"
       style="font-variant:normal;font-weight:bold;font-stretch:normal;font-size:22px;font-family:Verdana;-inkscape-font-specification:'Verdana Bold';writing-mode:lr-tb;fill:#000000;fill-opacity:1;fill-rule:nonzero;stroke:none"
       transform="matrix(1.000156,0,0,-1,208.1811,406.7723)"><tspan
         id="tspan1578"
         y="0"
         x="0">5</tspan><tspan
         id="tspan1580"
         y="-42.372002"
         x="0.022">1</tspan><tspan
         id="tspan1582"
         y="-87.449997"
         x="0.022">4</tspan><tspan
         id="tspan1584"
         y="-132.48399"
         x="0.022">8</tspan><tspan
         id="tspan1586"
         y="41.624001"
         x="0.022">9</tspan><tspan
         id="tspan1588"
         sodipodi:role="line"
         y="-167.75"
         x="31.702 47.346439">12</tspan><tspan
         id="tspan1590"
         sodipodi:role="line"
         y="88.220001"
         x="-15.642 0.0024401499">13</tspan><tspan
         id="tspan1592"
         sodipodi:role="line"
         y="149.71001"
         x="151.052 166.69644">14</tspan><tspan
         id="tspan1594"
         sodipodi:role="line"
         y="-167.75"
         x="175.714 191.35844 80.167999 95.812439">1516</tspan><tspan
         id="tspan1596"
         sodipodi:role="line"
         y="149.71001"
         x="5.9840002 21.628441 101.618 117.26244">1718</tspan><tspan
         id="tspan1598"
         sodipodi:role="line"
         y="-167.75"
         x="129.40401 145.04845">19</tspan><tspan
         id="tspan1600"
         sodipodi:role="line"
         y="149.71001"
         x="54.383999 70.028442">20</tspan><tspan
         id="tspan1602"
         sodipodi:role="line"
         y="-111.54"
         x="197.384 213.02844">11</tspan><tspan
         id="tspan1604"
         y="-64.174004"
         x="203.698">7</tspan><tspan
         id="tspan1606"
         y="-20.218"
         x="203.698">3</tspan><tspan
         id="tspan1608"
         y="23.65"
         x="203.698">2</tspan><tspan
         id="tspan1610"
         y="67.914001"
         x="203.698">6</tspan><tspan
         id="tspan1612"
         sodipodi:role="line"
         y="109.67"
         x="195.866 211.51044">10</tspan></text><g
       transform="translate(280.8,320.5)"
       id="g1616"><path
         id="path1618"
         style="fill:none;stroke:#000000;stroke-width:0.709;stroke-linecap:round;stroke-linejoin:round;stroke-miterlimit:10;stroke-dasharray:none;stroke-opacity:1"
         d="m 0,0 -1.9,0.1 -1.8,0.5 -1.7,0.8 -1.6,1.1 -1.3,1.3 -1.1,1.6 -0.8,1.7 -0.5,1.8 -0.1,1.9 M 68.4,0 H 0 M 79.2,10.8 79,8.9 78.5,7.1 77.7,5.4 76.7,3.8 75.3,2.5 73.8,1.4 72.1,0.6 70.3,0.1 68.4,0 M 79.2,196.5 V 10.8 m -10.8,196.5 1.9,-0.2 1.8,-0.4 1.7,-0.8 1.5,-1.1 1.4,-1.3 1,-1.6 0.8,-1.7 0.5,-1.8 0.2,-1.9 M 0,207.3 h 68.4 m -79.2,-10.8 0.1,1.9 0.5,1.8 0.8,1.7 1.1,1.6 1.3,1.3 1.6,1.1 1.7,0.8 1.8,0.4 1.9,0.2 M -10.8,10.8 v 185.7 m -43.6,-235.2 0.1,1.2 0.5,1.1 0.7,1 0.9,0.8 1.1,0.5 1.2,0.2 1.2,-0.1 1.1,-0.3 1,-0.7 0.8,-0.9 0.6,-1 0.3,-1.2 v -1.2 l -0.3,-1.1 -0.6,-1.1 -0.8,-0.9 -1,-0.6 -1.1,-0.4 -1.2,-0.1 -1.2,0.3 -1.1,0.5 -0.9,0.7 -0.7,1 -0.5,1.1 -0.1,1.2 m 47.9,0 0.1,1.2 0.5,1.1 0.7,1 0.9,0.8 1.1,0.5 1.2,0.2 1.2,-0.1 1.1,-0.3 1,-0.7 0.8,-0.9 0.6,-1 0.3,-1.2 v -1.2 l -0.3,-1.1 -0.6,-1.1 -0.8,-0.9 -1,-0.6 -1.1,-0.4 -1.2,-0.1 -1.2,0.3 -1.1,0.5 -0.9,0.7 -0.7,1 -0.5,1.1 -0.1,1.2 m 47.9,0 0.1,1.2 0.5,1.1 0.7,1 0.9,0.8 1.1,0.5 1.2,0.2 1.2,-0.1 1.1,-0.3 1,-0.7 0.8,-0.9 0.6,-1 0.3,-1.2 v -1.2 l -0.3,-1.1 -0.6,-1.1 -0.8,-0.9 -1,-0.6 -1.1,-0.4 -1.2,-0.1 -1.2,0.3 -1.1,0.5 -0.9,0.7 -0.7,1 -0.5,1.1 -0.1,1.2 m 47.9,0 0.1,1.2 0.5,1.1 0.7,1 0.9,0.8 1.1,0.5 1.1,0.2 1.2,-0.1 1.2,-0.3 1,-0.7 0.8,-0.9 0.6,-1 0.3,-1.2 v -1.2 l -0.3,-1.1 -0.6,-1.1 -0.8,-0.9 -1,-0.6 -1.2,-0.4 -1.2,-0.1 -1.1,0.3 -1.1,0.5 -0.9,0.7 -0.7,1 -0.5,1.1 -0.1,1.2 m 23.9,21.9 0.2,1.2 0.4,1.1 0.7,1 0.9,0.8 1.1,0.5 1.2,0.2 1.2,-0.1 1.1,-0.4 1,-0.6 0.9,-0.9 0.5,-1 0.3,-1.2 v -1.2 l -0.3,-1.2 -0.5,-1 -0.9,-0.9 -1,-0.6 -1.1,-0.4 -1.2,-0.1 -1.2,0.3 -1.1,0.5 -0.9,0.7 -0.7,1 -0.4,1.1 -0.2,1.2 m 0,43.8 0.2,1.2 0.4,1.1 0.7,1 0.9,0.7 1.1,0.6 1.2,0.2 1.2,-0.1 1.1,-0.4 1,-0.6 0.9,-0.9 0.5,-1 0.3,-1.2 v -1.2 l -0.3,-1.2 -0.5,-1 -0.9,-0.9 -1,-0.6 -1.1,-0.4 -1.2,-0.1 -1.2,0.2 -1.1,0.6 -0.9,0.7 -0.7,1 -0.4,1.1 -0.2,1.2 m 0,43.8 0.2,1.2 0.4,1.1 0.7,1 0.9,0.7 1.1,0.5 1.2,0.3 1.2,-0.1 1.1,-0.4 1,-0.6 0.9,-0.9 0.5,-1 0.3,-1.2 v -1.2 l -0.3,-1.2 -0.5,-1 -0.9,-0.9 -1,-0.6 -1.1,-0.4 -1.2,-0.1 -1.2,0.2 -1.1,0.5 -0.9,0.8 -0.7,1 -0.4,1.1 -0.2,1.2 m 0,43.8 0.2,1.2 0.4,1.1 0.7,1 0.9,0.7 1.1,0.5 1.2,0.3 1.2,-0.1 1.1,-0.4 1,-0.6 0.9,-0.9 0.5,-1.1 0.3,-1.1 V 114 l -0.3,-1.2 -0.5,-1 -0.9,-0.9 -1,-0.7 -1.1,-0.3 -1.2,-0.1 -1.2,0.2 -1.1,0.5 -0.9,0.8 -0.7,1 -0.4,1.1 -0.2,1.2 m 0,43.8 0.2,1.2 0.4,1.1 0.7,0.9 0.9,0.8 1.1,0.5 1.2,0.2 h 1.2 l 1.1,-0.4 1,-0.6 0.9,-0.9 0.5,-1.1 0.3,-1.1 v -1.2 l -0.3,-1.2 -0.5,-1 -0.9,-0.9 -1,-0.7 -1.1,-0.3 -1.2,-0.1 -1.2,0.2 -1.1,0.5 -0.9,0.8 -0.7,1 -0.4,1.1 -0.2,1.2 m 0,43.8 0.2,1.1 0.4,1.2 0.7,0.9 0.9,0.8 1.1,0.5 1.2,0.2 h 1.2 l 1.1,-0.4 1,-0.7 0.9,-0.8 0.5,-1.1 0.3,-1.1 v -1.2 l -0.3,-1.2 -0.5,-1.1 -0.9,-0.8 -1,-0.7 -1.1,-0.3 -1.2,-0.1 -1.2,0.2 -1.1,0.5 -0.9,0.8 -0.7,0.9 -0.4,1.2 -0.2,1.2 m 0,43.7 0.2,1.2 0.4,1.1 0.7,1 0.9,0.8 1.1,0.5 1.2,0.2 1.2,-0.1 1.1,-0.3 1,-0.7 0.9,-0.8 0.5,-1.1 0.3,-1.2 v -1.2 l -0.3,-1.1 -0.5,-1.1 -0.9,-0.8 -1,-0.7 -1.1,-0.4 h -1.2 l -1.2,0.2 -1.1,0.5 -0.9,0.8 -0.7,0.9 -0.4,1.2 -0.2,1.1 m -47.9,0 0.2,1.2 0.4,1.1 0.7,1 0.9,0.8 1.1,0.5 1.2,0.2 1.2,-0.1 1.1,-0.3 1.1,-0.7 0.8,-0.8 0.6,-1.1 0.3,-1.2 v -1.2 l -0.3,-1.1 -0.6,-1.1 -0.8,-0.8 -1.1,-0.7 -1.1,-0.4 h -1.2 l -1.2,0.2 -1.1,0.5 -0.9,0.8 -0.7,0.9 -0.4,1.2 -0.2,1.1 m -47.9,0 0.2,1.2 0.4,1.1 0.7,1 0.9,0.8 1.1,0.5 1.2,0.2 1.2,-0.1 1.1,-0.3 1.1,-0.7 0.8,-0.8 0.6,-1.1 0.3,-1.2 v -1.2 l -0.3,-1.1 -0.6,-1.1 -0.8,-0.8 -1.1,-0.7 -1.1,-0.4 h -1.2 l -1.2,0.2 -1.1,0.5 -0.9,0.8 -0.7,0.9 -0.4,1.2 -0.2,1.1 m -47.9,0 0.2,1.2 0.4,1.1 0.7,1 1,0.8 1,0.5 1.2,0.2 1.2,-0.1 1.2,-0.3 1,-0.7 0.8,-0.8 0.6,-1.1 0.3,-1.2 v -1.2 l -0.3,-1.1 -0.6,-1.1 -0.8,-0.8 -1,-0.7 -1.2,-0.4 H -26 l -1.2,0.2 -1,0.5 -1,0.8 -0.7,0.9 -0.4,1.2 -0.2,1.1 m -23.9,-21.9 0.1,1.2 0.5,1.2 0.7,0.9 0.9,0.8 1.1,0.5 1.2,0.2 h 1.2 l 1.1,-0.4 1,-0.7 0.8,-0.8 0.6,-1.1 0.3,-1.2 v -1.2 l -0.3,-1.1 -0.6,-1.1 -0.8,-0.8 -1,-0.7 -1.1,-0.4 h -1.2 l -1.2,0.2 -1.1,0.5 -0.9,0.8 -0.7,0.9 -0.5,1.2 -0.1,1.1 m 0,-87.5 0.1,1.2 0.5,1.1 0.7,0.9 0.9,0.8 1.1,0.5 1.2,0.3 1.2,-0.1 1.1,-0.4 1,-0.6 0.8,-0.9 0.6,-1.1 0.3,-1.1 v -1.2 l -0.3,-1.2 -0.6,-1 -0.8,-0.9 -1,-0.7 -1.1,-0.3 -1.2,-0.1 -1.2,0.2 -1.1,0.5 -0.9,0.8 -0.7,1 -0.5,1.1 -0.1,1.2 m 0,-43.8 0.1,1.2 0.5,1.1 0.7,1 0.9,0.7 1.1,0.5 1.2,0.3 1.2,-0.1 1.1,-0.4 1,-0.6 0.8,-0.9 0.6,-1.1 0.3,-1.1 v -1.2 l -0.3,-1.2 -0.6,-1 -0.8,-0.9 -1,-0.6 -1.1,-0.4 -1.2,-0.1 -1.2,0.2 -1.1,0.5 -0.9,0.8 -0.7,1 -0.5,1.1 -0.1,1.2 m 0,-43.8 0.1,1.2 0.5,1.1 0.7,1 0.9,0.7 1.1,0.5 1.2,0.3 1.2,-0.1 1.1,-0.4 1,-0.6 0.8,-0.9 0.6,-1 0.3,-1.2 v -1.2 l -0.3,-1.2 -0.6,-1 -0.8,-0.9 -1,-0.6 -1.1,-0.4 -1.2,-0.1 -1.2,0.2 -1.1,0.6 -0.9,0.7 -0.7,1 -0.5,1.1 -0.1,1.2 m 0,-43.8 0.1,1.2 0.5,1.1 0.7,1 0.9,0.7 1.1,0.6 1.2,0.2 1.2,-0.1 1.1,-0.4 1,-0.6 0.8,-0.9 0.6,-1 0.3,-1.2 V 4.5 l -0.3,-1.2 -0.6,-1 -0.8,-0.9 -1,-0.6 -1.1,-0.4 -1.2,-0.1 -1.2,0.3 -1.1,0.5 -0.9,0.7 -0.7,1 -0.5,1.1 -0.1,1.2 m 211,-70.2 H -88.3 m 0,0 v 337.5 m 0,0 h 244.9 m 0,0 V -65.1 m -211,245.4 0.1,1.2 0.5,1.1 0.7,0.9 0.9,0.8 1.1,0.5 1.2,0.2 h 1.2 l 1.1,-0.4 1,-0.7 0.8,-0.8 0.6,-1.1 0.3,-1.1 v -1.2 l -0.3,-1.2 -0.6,-1.1 -0.8,-0.8 -1,-0.7 -1.1,-0.3 -1.2,-0.1 -1.2,0.2 -1.1,0.5 -0.9,0.8 -0.7,1 -0.5,1.1 -0.1,1.2" /></g></g></svg>
